/* XPM */
static char *_3b3935fce6d421cbed1d6a8613b7d27kj58lyzLselvQMcL[] = {
/* columns rows colors chars-per-pixel */
"32 32 156 2 ",
"   c None",
".  c #1F68EA",
"X  c #1E69EA",
"o  c #1F69EA",
"O  c #1F68EB",
"+  c #1F69EB",
"@  c #1E6AEA",
"#  c #1F6AEA",
"$  c #1F6AEB",
"%  c #1F6BEB",
"&  c #1F6BEC",
"*  c #2069EB",
"=  c #206AEA",
"-  c #206BEA",
";  c #206AEB",
":  c #216AEB",
">  c #206BEB",
",  c #216BEB",
"<  c #226BEB",
"1  c #226CEB",
"2  c #236CEB",
"3  c #256DEB",
"4  c #266EEB",
"5  c #276FEB",
"6  c #206AEC",
"7  c #286FEB",
"8  c #2970EB",
"9  c #2C72EB",
"0  c #2E73EB",
"q  c #3377EC",
"w  c #3477EC",
"e  c #3478EC",
"r  c #3578EC",
"t  c #3678EC",
"y  c #377AEC",
"u  c #387AEC",
"i  c #3C7CEC",
"p  c #3C7DEC",
"a  c #3E7EEC",
"s  c #3F7FEC",
"d  c #3E7EED",
"f  c #3F7FED",
"g  c #407FEC",
"h  c #407FED",
"j  c #4381ED",
"k  c #4582ED",
"l  c #4583ED",
"z  c #4784EE",
"x  c #4885ED",
"c  c #4A86EE",
"v  c #4C87EE",
"b  c #538CEE",
"n  c #548CEE",
"m  c #558DEF",
"M  c #558EEF",
"N  c #568EEF",
"B  c #5A91EF",
"V  c #5D93EF",
"C  c #5E93EF",
"Z  c #5F94EF",
"A  c #6295EF",
"S  c #6497F0",
"D  c #6698F0",
"F  c #6799F0",
"G  c #699BF0",
"H  c #6A9BF1",
"J  c #6A9CF1",
"K  c #6E9EF1",
"L  c #6F9FF1",
"P  c #71A0F1",
"I  c #75A3F1",
"U  c #77A4F2",
"Y  c #79A5F2",
"T  c #7AA6F2",
"R  c #7DA8F2",
"E  c #80AAF2",
"W  c #81ABF2",
"Q  c #82ACF2",
"!  c #83ACF3",
"~  c #86AEF3",
"^  c #87AFF3",
"/  c #88AFF3",
"(  c #8FB4F3",
")  c #8DB3F4",
"_  c #8EB4F4",
"`  c #90B4F4",
"'  c #93B7F4",
"]  c #98BAF4",
"[  c #99BBF5",
"{  c #9BBCF4",
"}  c #9EBEF5",
"|  c #9FBEF5",
" . c #A0BFF5",
".. c #A1C0F5",
"X. c #A2C1F5",
"o. c #A5C2F6",
"O. c #A9C5F6",
"+. c #ABC7F6",
"@. c #ABC7F7",
"#. c #ADC8F7",
"$. c #AFC9F7",
"%. c #B2CBF7",
"&. c #B3CCF7",
"*. c #B5CDF7",
"=. c #B6CDF7",
"-. c #B7CFF7",
";. c #B8CFF7",
":. c #B6CEF8",
">. c #B8D0F8",
",. c #BDD3F8",
"<. c #C0D5F8",
"1. c #C1D5F9",
"2. c #C8DAF9",
"3. c #CADCF9",
"4. c #CDDDF9",
"5. c #CEDEFA",
"6. c #D0DFFA",
"7. c #D0E0FA",
"8. c #D1E0FA",
"9. c #D7E4FA",
"0. c #D9E6FB",
"q. c #DDE7FA",
"w. c #DCE7FB",
"e. c #E1EBFB",
"r. c #E3ECFB",
"t. c #E4EDFB",
"y. c #E6EDFB",
"u. c #E4ECFC",
"i. c #E5EEFC",
"p. c #E6EEFC",
"a. c #E7EEFC",
"s. c #E8F0FC",
"d. c #EAF1FC",
"f. c #EBF1FC",
"g. c #EDF3FC",
"h. c #EEF3FC",
"j. c #EFF4FD",
"k. c #EFF5FD",
"l. c #F0F5FC",
"z. c #F0F5FD",
"x. c #F2F6FD",
"c. c #F3F7FD",
"v. c #F4F7FD",
"b. c #F5F8FD",
"n. c #F6F9FD",
"m. c #F7F9FD",
"M. c #F5F8FE",
"N. c #F6F9FE",
"B. c #FAFBFE",
"V. c #FAFCFE",
"C. c #FBFCFE",
"Z. c #FCFDFE",
"A. c #FDFDFE",
"S. c #FDFEFE",
"D. c #FEFEFE",
"F. c white",
/* pixels */
"                                                                ",
"                                                                ",
"                                                                ",
"                                                                ",
"                        & , = o = 1 = o                         ",
"                    o , , , 6 4 , 6 = = , 6                     ",
"                = 6 = = q U +.,.1.#.Y t , 1 1 &                 ",
"              = = 6 p ] g.F.F.F.F.F.F.g.| p 6 = &               ",
"            & = 6 n t.F.F.F.C.F.F.F.F.F.F.t.n , = &             ",
"            = 6 v l.F.n.&.P V / l.F.F.F.F.F.n.B 6 =             ",
"          = = p e.F.#.k , , , , c 0.F.F.F.F.F.r.h 6 =           ",
"          , 6 [ F.X.8 = , , , , 6 b i.v.n.n.n.B.' = =           ",
"        & = e g.0.4 , , , , , , = , 4 e e e e e ` = = 6         ",
"        & 1 Y C.F = , , , , , , 1 6 1 = , , , , X.h 6 6         ",
"        = , #.i.7 1 6 , , = 1 , , , 6 , , , = n ;.E , =         ",
"        6 , 1.7.= = , , 4 7 6 , , , , , , 6 9 6.| =.4 6         ",
"        = 6 ,.6., , , , J 8 , , , = 1 6 = s 5.l.~ 3.4 =         ",
"        = = ( g.j , 8 J n , , 8 F H J Y +.f.B.R 2.=., %         ",
"        = 1 e 0.0.~ &.^ , , , V C.F.F.F.F.f.~ | F.W , ,         ",
"        = 6 6 e ~ ( j , , , , =.F.B.n.i.{ k =.C.j.t , o         ",
"          = 1 1 = , , , , , t n.F.L A Y +.t.F.F.o., ,           ",
"          6 6 = = , , , , , S F.f.A C.F.F.F.F.s.j 6 =           ",
"            , , , , , , , , X.C.X.( F.F.F.F.n.V , =             ",
"            = = , , , , , , j c 0 5.F.F.F.i.n 4 = 6             ",
"              = = 1 1 6 , , , , z n.F.j.+.k = & o               ",
"                o , & = , , , 6 U >.W u 6 = 6 o                 ",
"                    o , , 6 , 1 = , 1 6 = 6                     ",
"                        = 6 , = = = = 6                         ",
"                                                                ",
"                                                                ",
"                                                                ",
"                                                                "
};
