/* XPM */
static char *_7e3a9a8dce74efacfffef3498e2fc95yk6AIoTsqJEJEcrM[] = {
/* columns rows colors chars-per-pixel */
"64 64 244 2 ",
"   c None",
".  c #1F68E9",
"X  c #1E69E9",
"o  c #1F69E9",
"O  c #1F6AE9",
"+  c #1E69EA",
"@  c #1F69EA",
"#  c #1F69EB",
"$  c #1F6AEA",
"%  c #1F6AEB",
"&  c #1F6BEB",
"*  c #1F6BEC",
"=  c #2069EA",
"-  c #2069EB",
";  c #206AEA",
":  c #206BEA",
">  c #206AEB",
",  c #216AEB",
"<  c #206BEB",
"1  c #216BEB",
"2  c #226BEB",
"3  c #226CEB",
"4  c #236CEB",
"5  c #246CEB",
"6  c #246DEB",
"7  c #256DEB",
"8  c #256EEB",
"9  c #266EEB",
"0  c #276EEB",
"q  c #206AEC",
"w  c #206BEC",
"e  c #206BED",
"r  c #286FEB",
"t  c #2970EB",
"y  c #2A71EB",
"u  c #2B71EB",
"i  c #2B72EB",
"p  c #2C72EB",
"a  c #2D73EB",
"s  c #2F73EB",
"d  c #2F74EB",
"f  c #3176EB",
"g  c #3276EB",
"h  c #3074EC",
"j  c #3175EC",
"k  c #3176EC",
"l  c #3276EC",
"z  c #3477EC",
"x  c #3577EC",
"c  c #3478EC",
"v  c #3578EC",
"b  c #3679EC",
"n  c #3779EC",
"m  c #377AEC",
"M  c #387AEC",
"N  c #397BEC",
"B  c #3A7BEC",
"V  c #3C7DED",
"C  c #3D7DED",
"Z  c #3D7EED",
"A  c #3E7EED",
"S  c #4080ED",
"D  c #4180ED",
"F  c #4381ED",
"G  c #4482ED",
"H  c #4683EE",
"J  c #4684EE",
"K  c #4784EE",
"L  c #4885ED",
"P  c #4985ED",
"I  c #4A86ED",
"U  c #4884EE",
"Y  c #4985EE",
"T  c #4986EE",
"R  c #4A86EE",
"E  c #4B86EE",
"W  c #4B87EE",
"Q  c #4C87EE",
"!  c #4E88EE",
"~  c #508AEE",
"^  c #518AEE",
"/  c #518BEE",
"(  c #508AEF",
")  c #528BEE",
"_  c #528CEE",
"`  c #548DEF",
"'  c #578FEF",
"]  c #5C92EF",
"[  c #5F94F0",
"{  c #6195EF",
"}  c #6196EF",
"|  c #6296EF",
" . c #6095F0",
".. c #6195F0",
"X. c #6296F0",
"o. c #6497F0",
"O. c #6498F0",
"+. c #6598F0",
"@. c #6799F0",
"#. c #679AF0",
"$. c #689AF0",
"%. c #6A9BF1",
"&. c #6C9CF1",
"*. c #6F9EF1",
"=. c #709FF1",
"-. c #719FF1",
";. c #71A0F1",
":. c #73A1F1",
">. c #70A0F2",
",. c #7BA7F2",
"<. c #7CA7F2",
"1. c #81ABF2",
"2. c #82ACF2",
"3. c #84ACF2",
"4. c #85ADF2",
"5. c #88B0F3",
"6. c #89B0F3",
"7. c #8BB1F3",
"8. c #8DB2F3",
"9. c #8EB3F3",
"0. c #8FB4F4",
"q. c #90B4F4",
"w. c #94B7F4",
"e. c #96B8F4",
"r. c #96B9F4",
"t. c #97B9F4",
"y. c #96B8F5",
"u. c #99BAF4",
"i. c #98BAF5",
"p. c #9ABCF5",
"a. c #9BBCF5",
"s. c #9DBDF5",
"d. c #9EBEF5",
"f. c #9FBFF5",
"g. c #A0BFF5",
"h. c #A4C2F5",
"j. c #A5C2F5",
"k. c #A6C3F5",
"l. c #A4C1F6",
"z. c #A5C2F6",
"x. c #A5C3F6",
"c. c #A8C4F6",
"v. c #A9C5F6",
"b. c #ACC7F6",
"n. c #ADC8F6",
"m. c #ACC8F7",
"M. c #AEC8F6",
"N. c #AEC9F6",
"B. c #AFC9F6",
"V. c #AEC9F7",
"C. c #AFC9F7",
"Z. c #B0C9F7",
"A. c #B1CBF7",
"S. c #B2CBF6",
"D. c #B2CBF7",
"F. c #B3CBF7",
"G. c #B3CCF7",
"H. c #B4CCF7",
"J. c #B7CFF7",
"K. c #B9CFF7",
"L. c #B6CEF8",
"P. c #B8D0F7",
"I. c #B9D0F7",
"U. c #BAD0F7",
"Y. c #BBD2F8",
"T. c #C1D5F8",
"R. c #C4D7F8",
"E. c #C6D8F8",
"W. c #C6D9F8",
"Q. c #C6D9F9",
"!. c #C7D9F9",
"~. c #CADBF9",
"^. c #CADCFA",
"/. c #CDDDF9",
"(. c #CDDDFA",
"). c #CEDEFA",
"_. c #CFDFFA",
"`. c #D0DFFA",
"'. c #D1E0F9",
"]. c #D1E0FA",
"[. c #D2E0FA",
"{. c #D4E1FA",
"}. c #D5E3FA",
"|. c #D6E3FA",
" X c #D6E4FA",
".X c #D7E4FA",
"XX c #D8E5FB",
"oX c #D9E5FB",
"OX c #D9E6FB",
"+X c #DBE7FA",
"@X c #DAE6FB",
"#X c #DCE7FA",
"$X c #DCE7FB",
"%X c #DDE8FA",
"&X c #DDE8FB",
"*X c #DEE9FB",
"=X c #E3ECFB",
"-X c #E6EEFB",
";X c #E2ECFC",
":X c #E3ECFC",
">X c #E4ECFC",
",X c #E5EDFC",
"<X c #E5EEFC",
"1X c #E6EEFC",
"2X c #E7EFFC",
"3X c #E8EFFC",
"4X c #E8F0FC",
"5X c #E9F0FC",
"6X c #EAF0FC",
"7X c #EAF1FC",
"8X c #EBF1FC",
"9X c #EBF2FC",
"0X c #ECF2FC",
"qX c #EDF2FC",
"wX c #EDF3FC",
"eX c #ECF2FD",
"rX c #EEF3FD",
"tX c #EFF4FD",
"yX c #F0F5FD",
"uX c #F1F5FD",
"iX c #F1F6FD",
"pX c #F2F6FD",
"aX c #F3F7FD",
"sX c #F4F7FD",
"dX c #F5F8FD",
"fX c #F6F8FD",
"gX c #F6F9FD",
"hX c #F7F9FD",
"jX c #F7FAFE",
"kX c #F8FAFD",
"lX c #F8FAFE",
"zX c #F9FBFE",
"xX c #FAFBFE",
"cX c #FAFCFD",
"vX c #FBFCFD",
"bX c #FAFCFE",
"nX c #FBFCFE",
"mX c #FCFDFD",
"MX c #FCFCFE",
"NX c #FCFDFE",
"BX c #FDFDFE",
"VX c #FDFEFE",
"CX c #FEFEFE",
"ZX c white",
/* pixels */
"                                                                                                                                ",
"                                                                                                                                ",
"                                                                                                                                ",
"                                                                                                                                ",
"                                                                                                                                ",
"                                                                                                                                ",
"                                                                                                                                ",
"                                                                                                                                ",
"                                                      = < < < w < < < < <                                                       ",
"                                              = < < w < < < < 1 < < < 5 5 < < < %                                               ",
"                                          < < < < 5 < 5 < < 1 1 5 < < < < < < 5 < < <                                           ",
"                                      < < < 5 < < < < < 5 < 1 1 < < < 5 5 < < < < < < < w                                       ",
"                                    < < 5 < < < < < < < u b D K U D M t 1 1 < < < 5 < 5 < <                                     ",
"                                  = < < < < < < 5 5 o.~.CXCXCXCXCXCXCXCX^.+.< < < < < < < < w                                   ",
"                              % < < < 5 < < w E P.rXCXCXCXCXCXCXCXCXCXCXCXCXrXY.Q < < 5 5 < 5 = w                               ",
"                            % < 5 < < < < F b.CXCXCXCXCXCXCXCXCXCXCXCXCXCXCXCXCXBXM.D < < < = w < w                             ",
"                            < 5 < < < 5 { sXCXCXCXCXCXCXCXCXCXCXCXCXCXCXCXCXCXCXCXCXdXX.r < < < < <                             ",
"                          < < < 5 < < i.CXCXCXCXCXCXCXCXCXCXCXCXCXCXCXCXCXCXCXCXCXCXCXCXi.< < < < 5 <                           ",
"                        < < < < < < z.CXCXCXCXCXCXCXBX3XOX@XsXCXCXCXCXCXCXCXCXCXCXCXCXCXCXv.3 3 < < < w                         ",
"                      < < < < 5 5 u.CXCXCXCXCX9XM.@.x 5 w < u =. XCXCXCXCXCXCXCXCXCXCXCXCXCXi.9 < 5 < < %                       ",
"                      < 5 < < < X.CXCXCXCXzXg.5 < < 5 < < < w = w T.CXCXCXCXCXCXCXCXCXCXCXCXCX+.5 < < < <                       ",
"                    w < < < < D uXCXCXCXrXK < 3 < 5 = w < 5 < 5 < p Y.CXCXCXCXCXCXCXCXCXCXCXCXdXG < 5 < < w                     ",
"                    5 < < < w V.CXCXCX~.x < < < w < < < 5 = < < < < h '.CXCXCXCXCXCXCXCXCXCXCXCXv.< < < 5 <                     ",
"                  w < < < 5 E CXCXCX$Xg < < < 5 = 5 < 5 < w < 5 < < < u OXCXCXCXCXCXCXCXCXCXCXCXuXr 5 < < = <                   ",
"                  < < < < < U.CXCXCXQ < 5 = w < < = w < < < 5 < < < < 5 < ) -.=.=.=.=.=.-.-.;.3.sX| 5 < < < <                   ",
"                  < < < < 5 rXCXCX0.< < < < < 5 < 5 < 5 < 5 = w 5 < < < < < 2 2 < < 2 w w w < < s.q.< < 5 < 5                   ",
"                  < 5 < < $.CXCXrXx < 5 5 < 5 < 5 < < < w < < < < 5 < 5 < 5 w 2 5 < 5 < 2 w 2 5 D.d.n < < < <                   ",
"                < 5 < < < ).CXCXD.< < < < < = < < w = 5 = 5 < 5 < < < < < w 2 w < < < < w 2 w 5 1Xi.6.< 5 < < <                 ",
"                < < < < r BXCXCX) < 5 < < < 5 < < < < < 5 < w < = 5 < 5 < < < 5 5 < < < < < w ;.CX<.E.p 5 < < =                 ",
"                < < < 5 M CXCXuX5 < < < < 5 < < = 5 < 5 < < = 5 w < < < 5 < < < < < < 5 < 3 5  XCXQ >XC < < < <                 ",
"                < < 5 < F CXCXOX< < < < < < < < w 5 r < 5 < 5 < < 5 = w < 5 < 5 5 < 5 < 5 3 9.CX1Xx sXE 5 < < w                 ",
"                = < < < U CXCX).< 5 < 5 < 5 < 5 < 5 ) < = w < < < < 5 < < < < < < < < < < +.CXCXz.Q zX) < < < <                 ",
"                w 1 1 1 K CXCX).< < < w < < < < < 4.M 5 < 5 < 5 < 5 5 = w < < < < < 5 3 =.sXCXCX) y.CX( < < 5 <                 ",
"                w 1 1 1 C CXCX$X5 < 5 = 5 < 5 < U 4.< < < < < < w = < < < 5 = 5 < w h z.zXCXCXl.b uXCXE < 5 < <                 ",
"                < < 1 1 t dXCXzXn < < 5 < < < Q 3Xx < < < 5 < < < < 5 < 5 < w r Q 7.uXCXCXCX1Xb y.CXCXC < < < <                 ",
"                < < 1 1 1 c.CXCXF.5 < < 5 < ..fXQ < 5 < < < < x F.L.L.L.L.Y.oXBXCXCXCXCXCXuXg S bXCXCXa < 5 < <                 ",
"                < < < < < r 3XCXBXz.x r ] E.fX<.< < < < < 5 < q.CXCXCXCXCXCXCXCXCXCXCXCX-XQ p *XCXCX`.< < < < <                 ",
"                  < < 5 w = %.sXBXCXzXsXBX3X$.< < 5 < 5 < < r rXCXCXCXCXCXCXCXCXCXCXCXF.C M }.CXCXCX=.< 5 < <                   ",
"                  < < < < 5 < ^ `.rXuX:Xb.h 5 < 5 < < < < < ) CXCXCXCXCXCXCXCXCXdX}.{ < G *XCXCXCXuXp < < 5 <                   ",
"                  < < 5 < < 5 < < r r 5 < < = < < < = 5 < w 7.CXCXCXzX9X9X@XD.&.h 5 5 y.zXCXCXCXCX!.3 3 < < <                   ",
"                  < < < < 5 = < < < < 5 < 5 < < < 5 < 5 = 2 }.CXCXCXV.3 < < < < U d.:XCXCXCXCXCXzX) < < < < <                   ",
"                    < < < < 5 < 5 < < < < < 5 < w = < < w U CXCXCXCXX.< 1.y.D.*XCXCXCXCXCXCXCXCXK.5 < 5 < <                     ",
"                    < < < < < < < 5 < 5 < < = < < 5 < < 5 u.CXCXCX1X< E CXCXCXCXCXCXCXCXCXCXCXzXU < < < < =                     ",
"                      < 5 < 5 < < < < < 5 < 5 < < < 5 = < `.CXCXCXg.< R.CXCXCXCXCXCXCXCXCXCXCX:.< < < 5 <                       ",
"                      < < < < < < w < < = 5 < < < 5 < 5 x zXCXCXCXX.b CXCXCXCXCXCXCXCXCXCXCXz.5 5 < 5 < <                       ",
"                        < 5 < 5 5 = 5 < w < 5 < < < < < i.CXCXBXwXh X.CXCXCXCXCXCXCXCXCXCXG.< < < < < =                         ",
"                          < w < < < < 5 < < = w < 5 < < ' ] ^ n 5 3 V.CXCXCXCXCXCXCXCXCXz.3 < 5 < < <                           ",
"                            - = 5 < w = 5 < 5 < < < 5 < < < < 5 3 p uXCXCXCXCXCXCXCXzX;.5 3 < < 5 w                             ",
"                            < < < < < < < 5 < < < w < 5 < < 5 < w &.CXCXCXCXCXCXBXK.U < < 5 < < w w                             ",
"                              < < 5 5 < < < 5 < 5 = < < < 5 = w < F.CXCXCXCXuXE.) 5 < < < < < w w                               ",
"                                  < < < < < < < < 5 < 5 w < < < < 1XCXCX'.:.p 5 < < < 5 < 5 <                                   ",
"                                    < < 5 < 5 = < < w = = 5 < 5 3 E C d 1 1 < 5 < < < < < <                                     ",
"                                      % < < 5 < < 5 < 5 < < < < < < 5 < < < 5 < 5 < < = <                                       ",
"                                          = < < w = < < 5 < < 5 < < < < < 5 < < = w w                                           ",
"                                              < = < 5 < < < < w < < 5 < < < < < <                                               ",
"                                                      < < = w = < < < < <                                                       ",
"                                                                                                                                ",
"                                                                                                                                ",
"                                                                                                                                ",
"                                                                                                                                ",
"                                                                                                                                ",
"                                                                                                                                ",
"                                                                                                                                ",
"                                                                                                                                "
};
