/* XPM */
static char *f763f03f211c4b8eafd9d262db9f5dcdKm9QoX5rcJdsFYaA[] = {
/* columns rows colors chars-per-pixel */
"16 16 84 1 ",
"  c None",
". c #1F69EB",
"X c #1F6AEA",
"o c #1F6AEB",
"O c #2069EB",
"+ c #206AEA",
"@ c #206BEA",
"# c #216BEA",
"$ c #206AEB",
"% c #216AEB",
"& c #206BEB",
"* c #216BEB",
"= c #226CEB",
"- c #236CEB",
"; c #266EEB",
": c #266FEB",
"> c #246DEC",
", c #286FEB",
"< c #2870EB",
"1 c #2970EB",
"2 c #2C72EB",
"3 c #2E74EB",
"4 c #2F74EC",
"5 c #3075EC",
"6 c #3276EC",
"7 c #3277EC",
"8 c #3377EC",
"9 c #3578EC",
"0 c #3679ED",
"q c #377AEC",
"w c #3A7BEC",
"e c #3B7CEC",
"r c #4582ED",
"t c #4683ED",
"y c #4784EE",
"u c #538CEE",
"i c #548DEE",
"p c #558FEF",
"a c #568EEF",
"s c #588FEF",
"d c #5990EF",
"f c #5D92EF",
"g c #5E93EF",
"h c #5F94EF",
"j c #6698F0",
"k c #6C9CF0",
"l c #72A0F1",
"z c #73A1F1",
"x c #7AA6F1",
"c c #8DB3F4",
"v c #93B7F5",
"b c #97B9F4",
"n c #9BBCF6",
"m c #9CBCF5",
"M c #9CBDF5",
"N c #9DBDF5",
"B c #9FBFF5",
"V c #ABC6F6",
"C c #B3CCF7",
"Z c #B6CEF7",
"A c #BBD1F7",
"S c #C0D4F8",
"D c #C2D6F8",
"F c #C6D8F8",
"G c #C7D9F8",
"H c #CBDCF9",
"J c #D1E0F9",
"K c #D5E2F9",
"L c #D5E3FA",
"P c #D6E4FA",
"I c #D7E4FA",
"U c #DAE5FB",
"Y c #E0EAFB",
"T c #E1EBFB",
"R c #E2EBFB",
"E c #E9F0FC",
"W c #EEF4FD",
"Q c #F0F4FC",
"! c #F4F7FD",
"~ c #F5F8FD",
"^ c #F6F8FD",
"/ c #F6F9FD",
"( c #FBFCFE",
") c #FEFEFE",
/* pixels */
"                ",
"                ",
"     =;78;X     ",
"    OdJ//Pf=    ",
"   OcRCVW)/v=   ",
"  OpGtO=fTETpX  ",
"  ;Gp====239xO  ",
"  8U3O,O=OOuM8  ",
"  8L9ew;rtlDA0  ",
"  XlZk=d//HBP<  ",
"  X=2O=MAZJQj$  ",
"   XX==nb)/n>   ",
"    $$==MPg$    ",
"     .OO8<$     ",
"                ",
"                "
};
