<svg id="ic-nav-cold-staking-active" xmlns="http://www.w3.org/2000/svg" width="24" height="45" viewBox="0 0 24 45">
  <rect id="Rectangle-Copy-7" width="24" height="45" fill="none"/>
  <g id="Path" transform="translate(1 14)">
    <path id="Path_381" data-name="Path 381" d="M20.7,15.1l-3-1.6,2.7-.5c.5,0,.8-.5.5-1.1,0-.5-.5-.8-1.1-.5l-4.3,1.1-3-1.6,3-1.6,4.3,1.1h.3c.3,0,.8-.3.8-.5a1.881,1.881,0,0,0-.5-1.1l-2.7-.5,3-1.6A.762.762,0,0,0,21,5.6c-.3-.3-.8-.5-1.1-.3l-3,1.6.8-2.4a1.881,1.881,0,0,0-.5-1.1c-.5,0-1.1.3-1.1.5L15,7.8,12,9.4V6.1l3.3-3a.785.785,0,0,0,0-1.1c-.3-.3-.8-.3-1.4,0L12.1,4V.8a.736.736,0,0,0-.8-.8.736.736,0,0,0-.8.8V4L8.3,1.9c-.3-.3-.8-.3-1.4,0A.785.785,0,0,0,6.9,3l3.3,3V9.3l-3-1.6L6.1,3.6c0-.5-.5-.8-1.1-.5-.5,0-.8.5-.5,1.1l.8,2.4L2.3,5c-.5-.3-1.1,0-1.1.3-.3.3,0,.8.3,1.1L4.5,8l-2.7.5c-.5,0-.8.5-.5,1.1-.1.1.5.4.7.4h.3L6.6,8.9l3,1.6-3,1.6L2.3,11c-.5,0-1.1.3-1.1.5a1.881,1.881,0,0,0,.5,1.1l2.7.5-3,1.6a.762.762,0,0,0-.3,1.1c.3.3.5.5.8.5h.5l2.7-1.6-.8,2.7a1.881,1.881,0,0,0,.5,1.1h.3c.3,0,.8-.3.8-.5L7,13.9l3-1.6v3.3l-3.3,3a.785.785,0,0,0,0,1.1c.3.3.8.3,1.4,0L10,17.8v3.3a.736.736,0,0,0,.8.8.736.736,0,0,0,.8-.8V17.8l1.9,1.9c.5.3.5.3.7.3.3,0,.5,0,.5-.3a.785.785,0,0,0,0-1.1l-3.3-3V12.1l3,1.6,1.1,4.1c0,.3.5.5.8.5h.3c.5,0,.8-.5.5-1.1V14.8l3,1.6h.5c.3,0,.5-.3.8-.5C21.6,16,21.3,15.4,20.7,15.1Z" fill="#216beb"/>
  </g>
</svg>
