<svg id="ic-nav-master" xmlns="http://www.w3.org/2000/svg" width="24" height="45" viewBox="0 0 24 45">
  <rect id="Rectangle-Copy-3" width="24" height="45" fill="none"/>
  <g id="Group_420" data-name="Group 420" transform="translate(1 14)">
    <path id="Path_18873" d="M20.407,15.351a9.906,9.906,0,0,0,.583-3.372,10.073,10.073,0,0,0-7.056-9.556,3,3,0,0,0-5.888,0A10.006,10.006,0,0,0,1.573,15.351a2.992,2.992,0,1,0,3.556,4.728,9.979,9.979,0,0,0,11.722,0,2.993,2.993,0,1,0,3.556-4.726ZM10.99,1.979a1,1,0,1,1-1,1A1,1,0,0,1,10.99,1.979Zm-8,17a1,1,0,1,1,1-1A1,1,0,0,1,2.99,18.979Zm8,1A7.984,7.984,0,0,1,5.968,18.2c0-.073.022-.143.022-.217a3,3,0,0,0-2.378-2.933A7.97,7.97,0,0,1,8.375,4.42a2.973,2.973,0,0,0,5.229,0,8.059,8.059,0,0,1,5.386,7.559,7.91,7.91,0,0,1-.622,3.067,3,3,0,0,0-2.378,2.933c0,.074.017.144.022.217A7.982,7.982,0,0,1,10.99,19.979Zm8-1a1,1,0,1,1,1-1A1,1,0,0,1,18.99,18.979Z" fill="#9ba2af"/>
    <path id="Path_18874" d="M15.99,15.979V7.628l-5,4.063-5-4.063v8.351h2V11.83l3,2.438,3-2.437v4.148Z" fill="#9ba2af"/>
  </g>
</svg>
