<svg id="ic-nav-privacy" xmlns="http://www.w3.org/2000/svg" width="24" height="45" viewBox="0 0 24 45">
  <rect id="Rectangle-Copy-4" width="24" height="45" fill="none"/>
  <g id="Group_422" data-name="Group 422" transform="translate(1 14)">
    <path id="Path_18869" d="M20.025,10.116,17.771.009,11,1.156,4.229,0,1.975,10.116H0v2H22v-2ZM5.771,2.294,11,3.183l5.229-.9,1.747,7.833H4.024Z" fill="#9ba2af"/>
    <path id="Path_18870" d="M12,16.116H10v-2H1v3.738a4.449,4.449,0,0,0,4.5,4.3,4.685,4.685,0,0,0,4.464-4.038h2.072A4.685,4.685,0,0,0,16.5,22.152a4.449,4.449,0,0,0,4.5-4.3V14.116H12ZM8,17.854a2.506,2.506,0,0,1-5,0V16.116H8Zm6-1.738h5v1.738a2.506,2.506,0,0,1-5,0Z" fill="#9ba2af"/>
  </g>
</svg>
