<svg id="ic-nav-settings-active" xmlns="http://www.w3.org/2000/svg" width="24" height="45" viewBox="0 0 24 45">
  <rect id="Rectangle-Copy-42" width="24" height="45" fill="none"/>
  <g id="Group_427" data-name="Group 427" transform="translate(1 14)">
    <g id="Group_8816">
      <path id="Path_18871" d="M13.9,22H8.1l-.313-3.136-.067-.027-2.439,2L1.167,16.725l2-2.44-.028-.066L0,13.9V8.1l3.135-.314.028-.066-2-2.44L5.276,1.168l2.439,2,.067-.027L8.1,0h5.8l.313,3.136.067.027,2.439-2L20.828,5.27l-2,2.44.028.066L22,8.1v5.8l-3.135.314-.028.066,2,2.44-4.109,4.107-2.439-2-.067.027Zm-4-2h2.2l.261-2.61.626-.2a6.387,6.387,0,0,0,.992-.414l.583-.3,2.033,1.664,1.548-1.549-1.664-2.035.3-.584a6.369,6.369,0,0,0,.414-.99l.2-.625L20,12.1V9.9l-2.61-.261-.2-.625a6.369,6.369,0,0,0-.414-.99l-.3-.584,1.662-2.03L16.59,3.861,14.557,5.525l-.583-.3a6.388,6.388,0,0,0-.992-.414l-.626-.2L12.1,2H9.9L9.639,4.61l-.626.2a6.388,6.388,0,0,0-.992.414l-.583.3L5.41,3.861,3.862,5.41,5.526,7.445l-.3.584a6.369,6.369,0,0,0-.414.99l-.2.625L2,9.9v2.2l2.61.261.2.625a6.369,6.369,0,0,0,.414.99l.3.584L3.862,16.59,5.41,18.139l2.033-1.664.583.3a6.387,6.387,0,0,0,.992.414l.626.2Z" fill="#216beb"/>
    </g>
    <g id="Group_8817" transform="translate(7 7)">
      <path id="Path_18872" d="M4,8A4,4,0,1,1,6.828,6.828,4,4,0,0,1,4,8ZM4,2A2,2,0,1,0,6,4,2,2,0,0,0,4,2Z" fill="#216beb"/>
    </g>
  </g>
</svg>
