<svg id="ic-nav-governance-active" xmlns="http://www.w3.org/2000/svg" width="24" height="46" viewBox="0 0 24 46">
  <rect id="Rectangle-Copy-10" width="24" height="46" fill="none"/>
  <g id="Group_417" data-name="Group 417" transform="translate(0 6)">
    <g id="_096-bitcoin-4" data-name="096-bitcoin-4" transform="translate(0.5 15)">
      <rect id="Rectangle" width="4.488" height="2.313" transform="translate(9.256 10.906)" fill="#216beb"/>
      <rect id="Rectangle-2" data-name="Rectangle" width="2.244" height="2.313" transform="translate(8.134 16.688)" fill="#216beb"/>
      <rect id="Rectangle-3" data-name="Rectangle" width="2.244" height="2.313" transform="translate(12.622 16.688)" fill="#216beb"/>
      <path id="Shape" d="M17.11,19h5.857L20.274,5.125H15.988V2.813H22.72V.5H.28V2.813H7.012V5.125H2.727L.034,19H5.89V16.688H2.771l1.8-9.25H18.435l1.8,9.25H17.11ZM13.744,5.125H9.256V2.813h4.488Z" fill="#216beb"/>
    </g>
    <path id="Stroke-61" d="M13.615,2.293l-1.555-.411-1.554.411L7.687,0,6,3.419l.637,2.562-.014,3.1,2.687,3.237,2.75.832,2.75-.832L17.5,9.08l-.015-3.1.637-2.562L16.435,0Zm1.868,3.448L15.5,8.362l-1.839,2.215-1.6.482-1.6-.482L8.626,8.362l.012-2.621L8.118,3.647l.253-.513,1.664,1.353,2.026-.535,2.027.535,1.663-1.353L16,3.647Z" fill="#216beb"/>
  </g>
</svg>
