<svg xmlns="http://www.w3.org/2000/svg" width="101" height="101" viewBox="0 0 101 101"><g transform="translate(0.5 0.5)"><path d="M52.62,26.14l1.27.17,1.26.24,1.23.31,1.21.36,1.17.43,1.15.49,1.12.54,1.08.6,1.05.65,1.01.7.98.75.93.8.89.85.85.89.8.93.75.98.7,1.01.65,1.05.6,1.08.54,1.12.49,1.15.43,1.17.36,1.21.31,1.23.24,1.26.17,1.27.1,1.3L74,50l-.04,1.32-.1,1.3-.17,1.27-.24,1.26-.31,1.23-.36,1.21-.43,1.17-.49,1.15-.54,1.12-.6,1.08-.65,1.05-.7,1.01-.75.98-.8.93-.85.89-.89.85-.93.8-.98.75-1.01.7-1.05.65-1.08.6-1.12.54-1.15.49-1.17.43-1.21.36-1.23.31-1.26.24-1.27.17-1.3.1L50,74l-1.32-.04-1.3-.1-1.27-.17-1.26-.24-1.23-.31-1.21-.36-1.17-.43-1.15-.49-1.12-.54-1.08-.6-1.05-.65-1.01-.7-.98-.75-.93-.8-.89-.85-.85-.89-.8-.93-.75-.98-.7-1.01-.65-1.05-.6-1.08-.54-1.12-.49-1.15-.43-1.17-.36-1.21-.31-1.23-.24-1.26-.17-1.27-.1-1.3L26,50l.04-1.32.1-1.3.17-1.27.24-1.26.31-1.23.36-1.21.43-1.17.49-1.15.54-1.12.6-1.08.65-1.05.7-1.01.75-.98.8-.93.85-.89.89-.85.93-.8.98-.75,1.01-.7,1.05-.65,1.08-.6,1.12-.54,1.15-.49,1.17-.43,1.21-.36,1.23-.31,1.26-.24,1.27-.17,1.3-.1L50,26l1.32.04ZM47.34,32.2l-1.29.23-1.25.33-1.21.42-1.18.49-1.13.58-1.08.65-1.03.72-.98.8-.92.85-.85.92-.8.98L34.9,40.2l-.65,1.08-.58,1.13-.49,1.18-.42,1.21-.33,1.25-.23,1.29-.15,1.32L32,50l.05,1.34.15,1.32.23,1.29.33,1.25.42,1.21.49,1.18.58,1.13.65,1.08.72,1.03.8.98.85.92.92.85.98.8,1.03.72,1.08.65,1.13.58,1.18.49,1.21.42,1.25.33,1.29.23,1.32.15L50,68l1.34-.05,1.32-.15,1.29-.23,1.25-.33,1.21-.42,1.18-.49,1.13-.58,1.08-.65,1.03-.72.98-.8.92-.85.85-.92.8-.98.72-1.03.65-1.08.58-1.13.49-1.18.42-1.21.33-1.25.23-1.29.15-1.32L68,50l-.05-1.34-.15-1.32-.23-1.29-.33-1.25-.42-1.21-.49-1.18-.58-1.13L65.1,40.2l-.72-1.03-.8-.98-.85-.92-.92-.85-.98-.8L59.8,34.9l-1.08-.65-1.13-.58-1.18-.49-1.21-.42-1.25-.33-1.29-.23-1.32-.15L50,32l-1.34.05Z" fill="#413d4a"/><path d="M52.62,26.14l1.27.17,1.26.24,1.23.31,1.21.36,1.17.43,1.15.49,1.12.54,1.08.6,1.05.65,1.01.7.98.75.93.8.89.85.85.89.8.93.75.98.7,1.01.65,1.05.6,1.08.54,1.12.49,1.15.43,1.17.36,1.21.31,1.23.24,1.26.17,1.27.1,1.3L74,50l-.04,1.32-.1,1.3-.17,1.27-.24,1.26-.31,1.23-.36,1.21-.43,1.17-.49,1.15-.54,1.12-.6,1.08-.65,1.05-.7,1.01-.75.98-.8.93-.85.89-.89.85-.93.8-.98.75-1.01.7-1.05.65-1.08.6-1.12.54-1.15.49-1.17.43-1.21.36-1.23.31-1.26.24-1.27.17-1.3.1L50,74l-1.32-.04-1.3-.1-1.27-.17-1.26-.24-1.23-.31-1.21-.36-1.17-.43-1.15-.49-1.12-.54-1.08-.6-1.05-.65-1.01-.7-.98-.75-.93-.8-.89-.85-.85-.89-.8-.93-.75-.98-.7-1.01-.65-1.05-.6-1.08-.54-1.12-.49-1.15-.43-1.17-.36-1.21-.31-1.23-.24-1.26-.17-1.27-.1-1.3L26,50l.04-1.32.1-1.3.17-1.27.24-1.26.31-1.23.36-1.21.43-1.17.49-1.15.54-1.12.6-1.08.65-1.05.7-1.01.75-.98.8-.93.85-.89.89-.85.93-.8.98-.75,1.01-.7,1.05-.65,1.08-.6,1.12-.54,1.15-.49,1.17-.43,1.21-.36,1.23-.31,1.26-.24,1.27-.17,1.3-.1L50,26l1.32.04ZM47.34,32.2l-1.29.23-1.25.33-1.21.42-1.18.49-1.13.58-1.08.65-1.03.72-.98.8-.92.85-.85.92-.8.98L34.9,40.2l-.65,1.08-.58,1.13-.49,1.18-.42,1.21-.33,1.25-.23,1.29-.15,1.32L32,50l.05,1.34.15,1.32.23,1.29.33,1.25.42,1.21.49,1.18.58,1.13.65,1.08.72,1.03.8.98.85.92.92.85.98.8,1.03.72,1.08.65,1.13.58,1.18.49,1.21.42,1.25.33,1.29.23,1.32.15L50,68l1.34-.05,1.32-.15,1.29-.23,1.25-.33,1.21-.42,1.18-.49,1.13-.58,1.08-.65,1.03-.72.98-.8.92-.85.85-.92.8-.98.72-1.03.65-1.08.58-1.13.49-1.18.42-1.21.33-1.25.23-1.29.15-1.32L68,50l-.05-1.34-.15-1.32-.23-1.29-.33-1.25-.42-1.21-.49-1.18-.58-1.13L65.1,40.2l-.72-1.03-.8-.98-.85-.92-.92-.85-.98-.8L59.8,34.9l-1.08-.65-1.13-.58-1.18-.49-1.21-.42-1.25-.33-1.29-.23-1.32-.15L50,32l-1.34.05Z" fill="rgba(0,0,0,0)"/><path d="M50,25.5l1.358.042,1.328.1,1.3.174,1.289.246,1.25.316,1.24.37,1.193.439,1.171.5,1.146.553,1.1.612,1.072.664,1.029.714,1,.768.949.817.906.866.867.909.818.952.764,1,.714,1.032.662,1.07.613,1.106.55,1.141.5,1.174.44,1.2.366,1.23.316,1.259.244,1.287.173,1.3.1,1.323L74.5,50l-.042,1.358-.1,1.328-.174,1.3-.246,1.289-.316,1.25-.37,1.24-.439,1.193-.5,1.171-.553,1.146-.612,1.1-.664,1.072-.714,1.029-.768,1-.817.949-.866.906-.909.867-.952.818-1,.764-1.032.714-1.07.662-1.106.613-1.141.55-1.174.5-1.2.44-1.23.366-1.259.316-1.287.244-1.3.173-1.323.1L50,74.5l-1.358-.042-1.328-.1-1.3-.174-1.289-.246-1.25-.316-1.24-.37-1.193-.439-1.171-.5-1.146-.553-1.1-.612-1.072-.664-1.029-.714-1-.768-.949-.817-.906-.866-.867-.909-.818-.952-.764-1L29.5,63.423l-.662-1.07-.613-1.106-.55-1.141-.5-1.174-.44-1.2-.366-1.23-.316-1.259-.244-1.287-.173-1.3-.1-1.323L25.5,50l.042-1.358.1-1.328.174-1.3.246-1.289.316-1.25.37-1.24.439-1.193.5-1.171.553-1.146.612-1.1.664-1.072.714-1.029.768-1,.817-.949.866-.906.909-.867.952-.818,1-.764,1.032-.714,1.07-.662,1.106-.613,1.141-.55,1.174-.5,1.2-.44,1.23-.366,1.259-.316,1.287-.244,1.3-.173,1.323-.1Zm1.293,1.04L50,26.5l-1.293.039-1.275.1L46.19,26.8l-1.232.235-1.206.3-1.185.352-1.143.42L40.3,28.6l-1.1.529-1.057.587-1.029.637-.99.686-.959.734-.909.782-.872.833-.833.872-.782.909-.734.959-.686.99-.637,1.029L29.124,39.2,28.6,40.3l-.481,1.128-.42,1.143-.352,1.185-.3,1.206L26.8,46.19l-.166,1.242-.1,1.274L26.5,50l.039,1.293.1,1.275L26.8,53.81l.235,1.232.3,1.206.352,1.185.42,1.143L28.6,59.7l.529,1.1.587,1.057.637,1.029.686.99.734.959.782.909.833.872.872.833.909.782.959.734.99.686,1.029.637,1.057.587,1.1.529,1.128.481,1.143.42,1.185.352,1.206.3,1.232.235,1.242.166,1.274.1L50,73.5l1.293-.039,1.274-.1L53.81,73.2l1.232-.235,1.206-.3,1.185-.352,1.143-.42L59.7,71.4l1.1-.529,1.057-.587,1.029-.637.99-.686.959-.734.909-.782.872-.833.833-.872.782-.909.734-.959.686-.99.637-1.029.587-1.057.529-1.1.481-1.128.42-1.143.352-1.185.3-1.206L73.2,53.81l.166-1.242.1-1.274L73.5,50l-.039-1.293-.1-1.274L73.2,46.19l-.235-1.232-.3-1.206-.352-1.185-.42-1.143L71.4,40.3l-.529-1.1-.587-1.057-.637-1.029-.686-.99-.734-.959-.782-.909-.833-.872-.872-.833-.909-.782-.959-.734-.99-.686-1.029-.637L60.8,29.124,59.7,28.6l-1.128-.481-1.143-.42-1.185-.352-1.206-.3L53.81,26.8l-1.242-.166ZM50,31.5l1.4.054,1.351.155,1.33.239,1.286.341,1.238.431,1.217.507,1.16.6,1.109.669,1.06.742,1,.82.948.878.87.943.822,1.01.739,1.059.666,1.11.6,1.167.5,1.208.431,1.246.339,1.29.235,1.321.153,1.358L68.5,50l-.054,1.4-.155,1.351-.239,1.33-.341,1.286L67.282,56.6l-.507,1.217-.6,1.16-.669,1.109-.742,1.06-.82,1-.878.948-.943.87-1.01.822-1.059.739-1.11.666-1.167.6-1.208.5-1.246.431-1.29.339-1.321.235-1.358.153L50,68.5l-1.4-.054-1.351-.155-1.33-.239-1.286-.341L43.4,67.282l-1.217-.507-1.16-.6-1.109-.669-1.06-.742-1-.82-.948-.878-.87-.943-.822-1.01-.739-1.059-.666-1.11-.6-1.167-.5-1.208-.431-1.246-.339-1.29L31.7,52.716l-.153-1.358L31.5,50l.054-1.4.155-1.351.239-1.33.341-1.286.431-1.238.507-1.217.6-1.16.669-1.109.742-1.06.82-1,.878-.948.943-.87,1.01-.822,1.059-.739,1.11-.666,1.167-.6,1.208-.5,1.246-.431,1.29-.339,1.321-.235,1.358-.153Zm1.3,1.049L50,32.5l-1.3.049-1.285.146-1.254.224-1.212.32-1.178.409-1.148.477-1.1.563-1.051.632-1,.7-.954.779-.894.826-.826.894-.779.954-.7,1-.633,1.051-.563,1.1-.477,1.148-.409,1.178-.32,1.212L32.7,47.412,32.549,48.7,32.5,50l.049,1.3.146,1.285.224,1.254.32,1.212.409,1.178.477,1.148.563,1.1.632,1.051.7,1,.779.954.826.894.894.826.954.779,1,.7,1.051.633,1.1.563,1.148.477,1.178.409,1.212.32,1.254.224,1.285.146L50,67.5l1.3-.049,1.285-.146,1.254-.224,1.212-.32,1.178-.409,1.148-.477,1.1-.563,1.051-.633,1-.7.954-.779.894-.826.826-.894.778-.954.7-1,.632-1.051.563-1.1.477-1.148.409-1.178.32-1.212.224-1.254.146-1.285L67.5,50l-.049-1.3L67.3,47.412l-.224-1.254-.32-1.212-.409-1.178-.477-1.148-.563-1.1-.633-1.051-.7-1-.779-.954-.826-.894-.894-.826-.954-.779-1-.7-1.051-.632-1.1-.563-1.148-.477-1.178-.409-1.212-.32L52.588,32.7Z" fill="rgba(0,0,0,0)"/><path d="M52.62,26.14l1.27.17,1.26.24,1.23.31,1.21.36,1.17.43,1.15.49,1.12.54,1.08.6,1.05.65,1.01.7.98.75.93.8.89.85.85.89.8.93.75.98.7,1.01.65,1.05.6,1.08.54,1.12.49,1.15.43,1.17.36,1.21.31,1.23.24,1.26.17,1.27.1,1.3L74,50l-.04,1.32-.1,1.3-.17,1.27-.24,1.26-.31,1.23-.36,1.21-.43,1.17-.49,1.15-.54,1.12-.6,1.08-.65,1.05-.7,1.01-.75.98-.8.93-.85.89-.89.85-.93.8-.98.75-1.01.7-1.05.65-1.08.6-1.12.54-1.15.49-1.17.43-1.21.36-1.23.31-1.26.24-1.27.17-1.3.1L50,74l-1.32-.04-1.3-.1-1.27-.17-1.26-.24-1.23-.31-1.21-.36-1.17-.43-1.15-.49-1.12-.54-1.08-.6-1.05-.65-1.01-.7-.98-.75-.93-.8-.89-.85-.85-.89-.8-.93-.75-.98-.7-1.01-.65-1.05-.6-1.08-.54-1.12-.49-1.15-.43-1.17-.36-1.21-.31-1.23-.24-1.26-.17-1.27-.1-1.3L26,50l.04-1.32.1-1.3.17-1.27.24-1.26.31-1.23.36-1.21.43-1.17.49-1.15.54-1.12.6-1.08.65-1.05.7-1.01.75-.98.8-.93.85-.89.89-.85.93-.8.98-.75,1.01-.7,1.05-.65,1.08-.6,1.12-.54,1.15-.49,1.17-.43,1.21-.36,1.23-.31,1.26-.24,1.27-.17,1.3-.1L50,26l1.32.04ZM47.34,32.2l-1.29.23-1.25.33-1.21.42-1.18.49-1.13.58-1.08.65-1.03.72-.98.8-.92.85-.85.92-.8.98L34.9,40.2l-.65,1.08-.58,1.13-.49,1.18-.42,1.21-.33,1.25-.23,1.29-.15,1.32L32,50l.05,1.34.15,1.32.23,1.29.33,1.25.42,1.21.49,1.18.58,1.13.65,1.08.72,1.03.8.98.85.92.92.85.98.8,1.03.72,1.08.65,1.13.58,1.18.49,1.21.42,1.25.33,1.29.23,1.32.15L50,68l1.34-.05,1.32-.15,1.29-.23,1.25-.33,1.21-.42,1.18-.49,1.13-.58,1.08-.65,1.03-.72.98-.8.92-.85.85-.92.8-.98.72-1.03.65-1.08.58-1.13.49-1.18.42-1.21.33-1.25.23-1.29.15-1.32L68,50l-.05-1.34-.15-1.32-.23-1.29-.33-1.25-.42-1.21-.49-1.18-.58-1.13L65.1,40.2l-.72-1.03-.8-.98-.85-.92-.92-.85-.98-.8L59.8,34.9l-1.08-.65-1.13-.58-1.18-.49-1.21-.42-1.25-.33-1.29-.23-1.32-.15L50,32l-1.34.05Z" fill="rgba(0,0,0,0)"/><path d="M52.62,26.14l1.27.17,1.26.24,1.23.31,1.21.36,1.17.43,1.15.49,1.12.54,1.08.6,1.05.65,1.01.7.98.75.93.8.89.85.85.89.8.93.75.98.7,1.01.65,1.05.6,1.08.54,1.12.49,1.15.43,1.17.36,1.21.31,1.23.24,1.26.17,1.27.1,1.3L74,50l-.04,1.32-.1,1.3-.17,1.27-.24,1.26-.31,1.23-.36,1.21-.43,1.17-.49,1.15-.54,1.12-.6,1.08-.65,1.05-.7,1.01-.75.98-.8.93-.85.89-.89.85-.93.8-.98.75-1.01.7-1.05.65-1.08.6-1.12.54-1.15.49-1.17.43-1.21.36-1.23.31-1.26.24-1.27.17-1.3.1L50,74l-1.32-.04-1.3-.1-1.27-.17-1.26-.24-1.23-.31-1.21-.36-1.17-.43-1.15-.49-1.12-.54-1.08-.6-1.05-.65-1.01-.7-.98-.75-.93-.8-.89-.85-.85-.89-.8-.93-.75-.98-.7-1.01-.65-1.05-.6-1.08-.54-1.12-.49-1.15-.43-1.17-.36-1.21-.31-1.23-.24-1.26-.17-1.27-.1-1.3L26,50l.04-1.32.1-1.3.17-1.27.24-1.26.31-1.23.36-1.21.43-1.17.49-1.15.54-1.12.6-1.08.65-1.05.7-1.01.75-.98.8-.93.85-.89.89-.85.93-.8.98-.75,1.01-.7,1.05-.65,1.08-.6,1.12-.54,1.15-.49,1.17-.43,1.21-.36,1.23-.31,1.26-.24,1.27-.17,1.3-.1L50,26l1.32.04ZM47.34,32.2l-1.29.23-1.25.33-1.21.42-1.18.49-1.13.58-1.08.65-1.03.72-.98.8-.92.85-.85.92-.8.98L34.9,40.2l-.65,1.08-.58,1.13-.49,1.18-.42,1.21-.33,1.25-.23,1.29-.15,1.32L32,50l.05,1.34.15,1.32.23,1.29.33,1.25.42,1.21.49,1.18.58,1.13.65,1.08.72,1.03.8.98.85.92.92.85.98.8,1.03.72,1.08.65,1.13.58,1.18.49,1.21.42,1.25.33,1.29.23,1.32.15L50,68l1.34-.05,1.32-.15,1.29-.23,1.25-.33,1.21-.42,1.18-.49,1.13-.58,1.08-.65,1.03-.72.98-.8.92-.85.85-.92.8-.98.72-1.03.65-1.08.58-1.13.49-1.18.42-1.21.33-1.25.23-1.29.15-1.32L68,50l-.05-1.34-.15-1.32-.23-1.29-.33-1.25-.42-1.21-.49-1.18-.58-1.13L65.1,40.2l-.72-1.03-.8-.98-.85-.92-.92-.85-.98-.8L59.8,34.9l-1.08-.65-1.13-.58-1.18-.49-1.21-.42-1.25-.33-1.29-.23-1.32-.15L50,32l-1.34.05Z" fill="rgba(0,0,0,0)"/><path d="M50,25.5l1.358.042,1.328.1,1.3.174,1.289.246,1.25.316,1.24.37,1.193.439,1.171.5,1.146.553,1.1.612,1.072.664,1.029.714,1,.768.949.817.906.866.867.909.818.952.764,1,.714,1.032.662,1.07.613,1.106.55,1.141.5,1.174.44,1.2.366,1.23.316,1.259.244,1.287.173,1.3.1,1.323L74.5,50l-.042,1.358-.1,1.328-.174,1.3-.246,1.289-.316,1.25-.37,1.24-.439,1.193-.5,1.171-.553,1.146-.612,1.1-.664,1.072-.714,1.029-.768,1-.817.949-.866.906-.909.867-.952.818-1,.764-1.032.714-1.07.662-1.106.613-1.141.55-1.174.5-1.2.44-1.23.366-1.259.316-1.287.244-1.3.173-1.323.1L50,74.5l-1.358-.042-1.328-.1-1.3-.174-1.289-.246-1.25-.316-1.24-.37-1.193-.439-1.171-.5-1.146-.553-1.1-.612-1.072-.664-1.029-.714-1-.768-.949-.817-.906-.866-.867-.909-.818-.952-.764-1L29.5,63.423l-.662-1.07-.613-1.106-.55-1.141-.5-1.174-.44-1.2-.366-1.23-.316-1.259-.244-1.287-.173-1.3-.1-1.323L25.5,50l.042-1.358.1-1.328.174-1.3.246-1.289.316-1.25.37-1.24.439-1.193.5-1.171.553-1.146.612-1.1.664-1.072.714-1.029.768-1,.817-.949.866-.906.909-.867.952-.818,1-.764,1.032-.714,1.07-.662,1.106-.613,1.141-.55,1.174-.5,1.2-.44,1.23-.366,1.259-.316,1.287-.244,1.3-.173,1.323-.1Zm1.293,1.04L50,26.5l-1.293.039-1.275.1L46.19,26.8l-1.232.235-1.206.3-1.185.352-1.143.42L40.3,28.6l-1.1.529-1.057.587-1.029.637-.99.686-.959.734-.909.782-.872.833-.833.872-.782.909-.734.959-.686.99-.637,1.029L29.124,39.2,28.6,40.3l-.481,1.128-.42,1.143-.352,1.185-.3,1.206L26.8,46.19l-.166,1.242-.1,1.274L26.5,50l.039,1.293.1,1.275L26.8,53.81l.235,1.232.3,1.206.352,1.185.42,1.143L28.6,59.7l.529,1.1.587,1.057.637,1.029.686.99.734.959.782.909.833.872.872.833.909.782.959.734.99.686,1.029.637,1.057.587,1.1.529,1.128.481,1.143.42,1.185.352,1.206.3,1.232.235,1.242.166,1.274.1L50,73.5l1.293-.039,1.274-.1L53.81,73.2l1.232-.235,1.206-.3,1.185-.352,1.143-.42L59.7,71.4l1.1-.529,1.057-.587,1.029-.637.99-.686.959-.734.909-.782.872-.833.833-.872.782-.909.734-.959.686-.99.637-1.029.587-1.057.529-1.1.481-1.128.42-1.143.352-1.185.3-1.206L73.2,53.81l.166-1.242.1-1.274L73.5,50l-.039-1.293-.1-1.274L73.2,46.19l-.235-1.232-.3-1.206-.352-1.185-.42-1.143L71.4,40.3l-.529-1.1-.587-1.057-.637-1.029-.686-.99-.734-.959-.782-.909-.833-.872-.872-.833-.909-.782-.959-.734-.99-.686-1.029-.637L60.8,29.124,59.7,28.6l-1.128-.481-1.143-.42-1.185-.352-1.206-.3L53.81,26.8l-1.242-.166ZM50,31.5l1.4.054,1.351.155,1.33.239,1.286.341,1.238.431,1.217.507,1.16.6,1.109.669,1.06.742,1,.82.948.878.87.943.822,1.01.739,1.059.666,1.11.6,1.167.5,1.208.431,1.246.339,1.29.235,1.321.153,1.358L68.5,50l-.054,1.4-.155,1.351-.239,1.33-.341,1.286L67.282,56.6l-.507,1.217-.6,1.16-.669,1.109-.742,1.06-.82,1-.878.948-.943.87-1.01.822-1.059.739-1.11.666-1.167.6-1.208.5-1.246.431-1.29.339-1.321.235-1.358.153L50,68.5l-1.4-.054-1.351-.155-1.33-.239-1.286-.341L43.4,67.282l-1.217-.507-1.16-.6-1.109-.669-1.06-.742-1-.82-.948-.878-.87-.943-.822-1.01-.739-1.059-.666-1.11-.6-1.167-.5-1.208-.431-1.246-.339-1.29L31.7,52.716l-.153-1.358L31.5,50l.054-1.4.155-1.351.239-1.33.341-1.286.431-1.238.507-1.217.6-1.16.669-1.109.742-1.06.82-1,.878-.948.943-.87,1.01-.822,1.059-.739,1.11-.666,1.167-.6,1.208-.5,1.246-.431,1.29-.339,1.321-.235,1.358-.153Zm1.3,1.049L50,32.5l-1.3.049-1.285.146-1.254.224-1.212.32-1.178.409-1.148.477-1.1.563-1.051.632-1,.7-.954.779-.894.826-.826.894-.779.954-.7,1-.633,1.051-.563,1.1-.477,1.148-.409,1.178-.32,1.212L32.7,47.412,32.549,48.7,32.5,50l.049,1.3.146,1.285.224,1.254.32,1.212.409,1.178.477,1.148.563,1.1.632,1.051.7,1,.779.954.826.894.894.826.954.779,1,.7,1.051.633,1.1.563,1.148.477,1.178.409,1.212.32,1.254.224,1.285.146L50,67.5l1.3-.049,1.285-.146,1.254-.224,1.212-.32,1.178-.409,1.148-.477,1.1-.563,1.051-.633,1-.7.954-.779.894-.826.826-.894.778-.954.7-1,.632-1.051.563-1.1.477-1.148.409-1.178.32-1.212.224-1.254.146-1.285L67.5,50l-.049-1.3L67.3,47.412l-.224-1.254-.32-1.212-.409-1.178-.477-1.148-.563-1.1-.633-1.051-.7-1-.779-.954-.826-.894-.894-.826-.954-.779-1-.7-1.051-.632-1.1-.563-1.148-.477-1.178-.409-1.212-.32L52.588,32.7Z" fill="rgba(0,0,0,0)"/><path d="M52.69,31.19l1.3.23,1.27.32,1.23.4,1.2.49,1.15.56,1.11.63,1.06.7,1.01.77.95.84.9.9.84.95.77,1.01.7,1.06.63,1.11.56,1.15.49,1.2.4,1.23.32,1.27.23,1.3.14,1.33L69,50l-.05,1.36-.14,1.33-.23,1.3-.32,1.27-.4,1.23-.48,1.2-.56,1.16-.63,1.1-.71,1.07-.77,1-.83.96-.9.9-.96.83-1,.77-1.07.71-1.1.63-1.16.56-1.2.48-1.23.4-1.27.32-1.3.23-1.33.14L50,69l-1.36-.05-1.33-.14-1.3-.23-1.27-.32-1.23-.4-1.2-.48-1.16-.56-1.1-.63-1.07-.71-1-.77-.96-.83-.9-.9-.83-.96-.77-1-.71-1.07-.63-1.1-.56-1.16-.48-1.2-.4-1.23-.32-1.27-.23-1.3-.14-1.33L31,50l.05-1.36.14-1.33.23-1.3.32-1.27.4-1.23.48-1.2.56-1.16.63-1.1.71-1.07.77-1,.83-.96.9-.9.96-.83,1-.77,1.07-.71,1.1-.63,1.16-.56,1.2-.48,1.23-.4,1.27-.32,1.3-.23,1.33-.14L50,31l1.36.05ZM47.37,33.2l-1.27.25-1.23.34-1.2.43-1.15.51-1.1.59-1.05.67-1,.74-.94.82-.88.88-.82.94-.74,1-.67,1.05-.59,1.1-.51,1.15-.43,1.2-.34,1.23-.25,1.27-.15,1.3L33,50l.05,1.33.15,1.3.25,1.27.34,1.23.43,1.2.51,1.15.59,1.1.67,1.05.74,1,.82.94.88.88.94.82,1,.74,1.05.67,1.1.59,1.15.51,1.2.43,1.23.34,1.27.25,1.3.15L50,67l1.33-.05,1.3-.15,1.27-.25,1.23-.34,1.19-.43,1.15-.51,1.11-.6L59.63,64l1-.74.94-.81.88-.88.81-.94.74-1,.67-1.05.6-1.11.51-1.15.43-1.19.34-1.23.25-1.27.15-1.3L67,50l-.05-1.33-.15-1.3-.25-1.27-.34-1.23-.43-1.2-.51-1.15-.59-1.1-.67-1.05-.74-1-.82-.94-.88-.88-.94-.82-1-.74-1.05-.67-1.1-.59-1.15-.51-1.2-.43-1.23-.34-1.27-.25-1.3-.15L50,33l-1.33.05Z" fill="#a09ea5"/><path d="M52.69,31.19l1.3.23,1.27.32,1.23.4,1.2.49,1.15.56,1.11.63,1.06.7,1.01.77.95.84.9.9.84.95.77,1.01.7,1.06.63,1.11.56,1.15.49,1.2.4,1.23.32,1.27.23,1.3.14,1.33L69,50l-.05,1.36-.14,1.33-.23,1.3-.32,1.27-.4,1.23-.48,1.2-.56,1.16-.63,1.1-.71,1.07-.77,1-.83.96-.9.9-.96.83-1,.77-1.07.71-1.1.63-1.16.56-1.2.48-1.23.4-1.27.32-1.3.23-1.33.14L50,69l-1.36-.05-1.33-.14-1.3-.23-1.27-.32-1.23-.4-1.2-.48-1.16-.56-1.1-.63-1.07-.71-1-.77-.96-.83-.9-.9-.83-.96-.77-1-.71-1.07-.63-1.1-.56-1.16-.48-1.2-.4-1.23-.32-1.27-.23-1.3-.14-1.33L31,50l.05-1.36.14-1.33.23-1.3.32-1.27.4-1.23.48-1.2.56-1.16.63-1.1.71-1.07.77-1,.83-.96.9-.9.96-.83,1-.77,1.07-.71,1.1-.63,1.16-.56,1.2-.48,1.23-.4,1.27-.32,1.3-.23,1.33-.14L50,31l1.36.05ZM47.37,33.2l-1.27.25-1.23.34-1.2.43-1.15.51-1.1.59-1.05.67-1,.74-.94.82-.88.88-.82.94-.74,1-.67,1.05-.59,1.1-.51,1.15-.43,1.2-.34,1.23-.25,1.27-.15,1.3L33,50l.05,1.33.15,1.3.25,1.27.34,1.23.43,1.2.51,1.15.59,1.1.67,1.05.74,1,.82.94.88.88.94.82,1,.74,1.05.67,1.1.59,1.15.51,1.2.43,1.23.34,1.27.25,1.3.15L50,67l1.33-.05,1.3-.15,1.27-.25,1.23-.34,1.19-.43,1.15-.51,1.11-.6L59.63,64l1-.74.94-.81.88-.88.81-.94.74-1,.67-1.05.6-1.11.51-1.15.43-1.19.34-1.23.25-1.27.15-1.3L67,50l-.05-1.33-.15-1.3-.25-1.27-.34-1.23-.43-1.2-.51-1.15-.59-1.1-.67-1.05-.74-1-.82-.94-.88-.88-.94-.82-1-.74-1.05-.67-1.1-.59-1.15-.51-1.2-.43-1.23-.34-1.27-.25-1.3-.15L50,33l-1.33.05Z" fill="rgba(0,0,0,0)"/><path d="M50,30.5l1.412.053,1.365.145,1.335.238,1.3.329,1.264.413,1.23.5,1.178.575,1.139.648,1.088.72,1.038.793.972.861.921.922.863.978.79,1.038.718,1.089.645,1.138.573,1.18.5,1.234.409,1.262.327,1.305.235,1.335.142,1.364L69.5,50l-.053,1.412L69.3,52.777l-.238,1.335-.329,1.3-.411,1.261-.494,1.232L67.254,59.1l-.647,1.128-.73,1.1-.788,1.022-.855.987-.927.925-.982.848L61.3,65.9l-1.1.727-1.131.646-1.192.574-1.231.491-1.262.409-1.305.327-1.335.235-1.364.142L50,69.5l-1.412-.053L47.223,69.3l-1.335-.238-1.3-.329-1.261-.411-1.232-.494L40.9,67.254l-1.128-.647-1.1-.73-1.022-.788-.987-.855-.925-.927-.848-.982L34.1,61.3l-.727-1.1-.646-1.131-.574-1.192-.491-1.231-.409-1.262-.327-1.305-.235-1.335-.142-1.364L30.5,50l.053-1.412.145-1.365.238-1.335.329-1.3.411-1.261.494-1.232.576-1.191.647-1.128.73-1.1.788-1.022.855-.987.927-.925.982-.848L38.7,34.1l1.1-.727,1.131-.646,1.192-.574,1.231-.491,1.262-.409,1.305-.327,1.335-.235,1.364-.142Zm1.325,1.049L50,31.5l-1.325.049-1.3.136-1.265.224-1.236.312-1.2.39-1.169.467-1.129.545-1.071.613-1.042.691-.975.751-.936.809-.874.874-.809.936-.751.975-.691,1.042-.613,1.071-.545,1.128L32.61,43.68l-.39,1.2-.312,1.236-.224,1.265-.136,1.3L31.5,50l.049,1.325.136,1.3.224,1.265.312,1.236.39,1.2.467,1.169.545,1.129.613,1.071.691,1.042.751.975.809.936.874.874.936.809.975.751,1.042.691,1.07.613,1.129.545,1.169.467,1.2.39,1.236.312,1.265.224,1.3.136L50,68.5l1.325-.049,1.3-.136,1.265-.224,1.236-.312,1.2-.39,1.169-.467,1.129-.545,1.07-.613,1.042-.691.975-.751.936-.809.874-.874.809-.936.751-.975.691-1.042.613-1.07.545-1.129.467-1.169.39-1.2.312-1.236.224-1.265.136-1.3L68.5,50l-.049-1.325-.136-1.3-.224-1.265-.312-1.236-.389-1.2-.477-1.168-.546-1.121-.614-1.082-.682-1.032-.749-.982-.818-.925-.878-.878-.925-.818-.982-.749-1.032-.681-1.082-.614-1.121-.546-1.168-.477-1.2-.389-1.236-.312-1.265-.224ZM50,32.5l1.387.054,1.339.156,1.307.259,1.265.351,1.234.444,1.184.526,1.133.609,1.078.69,1.031.765.965.843.9.9.845.971.76,1.028.689,1.083.606,1.134.524,1.184.441,1.235L67.041,46l.256,1.309.153,1.339L67.5,50l-.054,1.387-.156,1.339-.259,1.307L66.68,55.3l-.443,1.223-.527,1.185-.618,1.141-.69,1.078-.763,1.029-.835.967-.907.905-.969.833-1.028.76-1.081.688-1.145.617-1.183.523-1.227.442L54,67.041l-1.309.256-1.339.153L50,67.5l-1.387-.054-1.339-.156-1.307-.259L44.7,66.681l-1.234-.444-1.184-.526L41.151,65.1l-1.078-.69-1.031-.765-.965-.843-.9-.9-.845-.971-.76-1.028-.689-1.083-.606-1.134L33.749,56.5l-.441-1.235L32.959,54,32.7,52.687l-.153-1.339L32.5,50l.054-1.387.156-1.339.259-1.307.351-1.265.444-1.234.526-1.184.609-1.133.69-1.078.765-1.031.843-.965.9-.9.971-.845,1.028-.76,1.083-.689,1.134-.606,1.184-.524,1.235-.441L46,32.959l1.309-.256,1.339-.153Zm1.292,1.049L50,33.5l-1.292.049-1.261.145-1.232.243-1.194.33-1.165.418-1.116.495-1.067.572-1.02.651-.97.718-.912.8-.856.856-.8.912-.718.97-.651,1.02-.572,1.067-.495,1.116-.418,1.165-.33,1.194-.243,1.232-.145,1.261L33.5,50l.049,1.292.145,1.261.243,1.232.33,1.194.418,1.165.495,1.116.572,1.067.651,1.02.718.97.8.912.856.856.912.8.97.718,1.02.651,1.067.572,1.116.495,1.165.418,1.194.33,1.232.243,1.261.145L50,66.5l1.292-.049,1.261-.145,1.232-.243,1.193-.33,1.155-.417,1.116-.495,1.077-.582,1.02-.651.971-.719.912-.786.854-.854.786-.912.719-.971.651-1.02.582-1.077.495-1.116.417-1.155.33-1.193.243-1.232.145-1.261L66.5,50l-.049-1.292-.145-1.261-.243-1.232-.33-1.194-.418-1.165-.495-1.116-.572-1.067-.651-1.02-.718-.97-.8-.912-.856-.856-.912-.8-.97-.718-1.02-.651-1.067-.572-1.116-.495-1.165-.418-1.194-.33-1.232-.243Z" fill="rgba(0,0,0,0)"/><path d="M52.69,31.19l1.3.23,1.27.32,1.23.4,1.2.49,1.15.56,1.11.63,1.06.7,1.01.77.95.84.9.9.84.95.77,1.01.7,1.06.63,1.11.56,1.15.49,1.2.4,1.23.32,1.27.23,1.3.14,1.33L69,50l-.05,1.36-.14,1.33-.23,1.3-.32,1.27-.4,1.23-.48,1.2-.56,1.16-.63,1.1-.71,1.07-.77,1-.83.96-.9.9-.96.83-1,.77-1.07.71-1.1.63-1.16.56-1.2.48-1.23.4-1.27.32-1.3.23-1.33.14L50,69l-1.36-.05-1.33-.14-1.3-.23-1.27-.32-1.23-.4-1.2-.48-1.16-.56-1.1-.63-1.07-.71-1-.77-.96-.83-.9-.9-.83-.96-.77-1-.71-1.07-.63-1.1-.56-1.16-.48-1.2-.4-1.23-.32-1.27-.23-1.3-.14-1.33L31,50l.05-1.36.14-1.33.23-1.3.32-1.27.4-1.23.48-1.2.56-1.16.63-1.1.71-1.07.77-1,.83-.96.9-.9.96-.83,1-.77,1.07-.71,1.1-.63,1.16-.56,1.2-.48,1.23-.4,1.27-.32,1.3-.23,1.33-.14L50,31l1.36.05ZM47.37,33.2l-1.27.25-1.23.34-1.2.43-1.15.51-1.1.59-1.05.67-1,.74-.94.82-.88.88-.82.94-.74,1-.67,1.05-.59,1.1-.51,1.15-.43,1.2-.34,1.23-.25,1.27-.15,1.3L33,50l.05,1.33.15,1.3.25,1.27.34,1.23.43,1.2.51,1.15.59,1.1.67,1.05.74,1,.82.94.88.88.94.82,1,.74,1.05.67,1.1.59,1.15.51,1.2.43,1.23.34,1.27.25,1.3.15L50,67l1.33-.05,1.3-.15,1.27-.25,1.23-.34,1.19-.43,1.15-.51,1.11-.6L59.63,64l1-.74.94-.81.88-.88.81-.94.74-1,.67-1.05.6-1.11.51-1.15.43-1.19.34-1.23.25-1.27.15-1.3L67,50l-.05-1.33-.15-1.3-.25-1.27-.34-1.23-.43-1.2-.51-1.15-.59-1.1-.67-1.05-.74-1-.82-.94-.88-.88-.94-.82-1-.74-1.05-.67-1.1-.59-1.15-.51-1.2-.43-1.23-.34-1.27-.25-1.3-.15L50,33l-1.33.05Z" fill="rgba(0,0,0,0)"/><path d="M52.69,31.19l1.3.23,1.27.32,1.23.4,1.2.49,1.15.56,1.11.63,1.06.7,1.01.77.95.84.9.9.84.95.77,1.01.7,1.06.63,1.11.56,1.15.49,1.2.4,1.23.32,1.27.23,1.3.14,1.33L69,50l-.05,1.36-.14,1.33-.23,1.3-.32,1.27-.4,1.23-.48,1.2-.56,1.16-.63,1.1-.71,1.07-.77,1-.83.96-.9.9-.96.83-1,.77-1.07.71-1.1.63-1.16.56-1.2.48-1.23.4-1.27.32-1.3.23-1.33.14L50,69l-1.36-.05-1.33-.14-1.3-.23-1.27-.32-1.23-.4-1.2-.48-1.16-.56-1.1-.63-1.07-.71-1-.77-.96-.83-.9-.9-.83-.96-.77-1-.71-1.07-.63-1.1-.56-1.16-.48-1.2-.4-1.23-.32-1.27-.23-1.3-.14-1.33L31,50l.05-1.36.14-1.33.23-1.3.32-1.27.4-1.23.48-1.2.56-1.16.63-1.1.71-1.07.77-1,.83-.96.9-.9.96-.83,1-.77,1.07-.71,1.1-.63,1.16-.56,1.2-.48,1.23-.4,1.27-.32,1.3-.23,1.33-.14L50,31l1.36.05ZM47.37,33.2l-1.27.25-1.23.34-1.2.43-1.15.51-1.1.59-1.05.67-1,.74-.94.82-.88.88-.82.94-.74,1-.67,1.05-.59,1.1-.51,1.15-.43,1.2-.34,1.23-.25,1.27-.15,1.3L33,50l.05,1.33.15,1.3.25,1.27.34,1.23.43,1.2.51,1.15.59,1.1.67,1.05.74,1,.82.94.88.88.94.82,1,.74,1.05.67,1.1.59,1.15.51,1.2.43,1.23.34,1.27.25,1.3.15L50,67l1.33-.05,1.3-.15,1.27-.25,1.23-.34,1.19-.43,1.15-.51,1.11-.6L59.63,64l1-.74.94-.81.88-.88.81-.94.74-1,.67-1.05.6-1.11.51-1.15.43-1.19.34-1.23.25-1.27.15-1.3L67,50l-.05-1.33-.15-1.3-.25-1.27-.34-1.23-.43-1.2-.51-1.15-.59-1.1-.67-1.05-.74-1-.82-.94-.88-.88-.94-.82-1-.74-1.05-.67-1.1-.59-1.15-.51-1.2-.43-1.23-.34-1.27-.25-1.3-.15L50,33l-1.33.05Z" fill="rgba(0,0,0,0)"/><path d="M50,30.5l1.412.053,1.365.145,1.335.238,1.3.329,1.264.413,1.23.5,1.178.575,1.139.648,1.088.72,1.038.793.972.861.921.922.863.978.79,1.038.718,1.089.645,1.138.573,1.18.5,1.234.409,1.262.327,1.305.235,1.335.142,1.364L69.5,50l-.053,1.412L69.3,52.777l-.238,1.335-.329,1.3-.411,1.261-.494,1.232L67.254,59.1l-.647,1.128-.73,1.1-.788,1.022-.855.987-.927.925-.982.848L61.3,65.9l-1.1.727-1.131.646-1.192.574-1.231.491-1.262.409-1.305.327-1.335.235-1.364.142L50,69.5l-1.412-.053L47.223,69.3l-1.335-.238-1.3-.329-1.261-.411-1.232-.494L40.9,67.254l-1.128-.647-1.1-.73-1.022-.788-.987-.855-.925-.927-.848-.982L34.1,61.3l-.727-1.1-.646-1.131-.574-1.192-.491-1.231-.409-1.262-.327-1.305-.235-1.335-.142-1.364L30.5,50l.053-1.412.145-1.365.238-1.335.329-1.3.411-1.261.494-1.232.576-1.191.647-1.128.73-1.1.788-1.022.855-.987.927-.925.982-.848L38.7,34.1l1.1-.727,1.131-.646,1.192-.574,1.231-.491,1.262-.409,1.305-.327,1.335-.235,1.364-.142Zm1.325,1.049L50,31.5l-1.325.049-1.3.136-1.265.224-1.236.312-1.2.39-1.169.467-1.129.545-1.071.613-1.042.691-.975.751-.936.809-.874.874-.809.936-.751.975-.691,1.042-.613,1.071-.545,1.128L32.61,43.68l-.39,1.2-.312,1.236-.224,1.265-.136,1.3L31.5,50l.049,1.325.136,1.3.224,1.265.312,1.236.39,1.2.467,1.169.545,1.129.613,1.071.691,1.042.751.975.809.936.874.874.936.809.975.751,1.042.691,1.07.613,1.129.545,1.169.467,1.2.39,1.236.312,1.265.224,1.3.136L50,68.5l1.325-.049,1.3-.136,1.265-.224,1.236-.312,1.2-.39,1.169-.467,1.129-.545,1.07-.613,1.042-.691.975-.751.936-.809.874-.874.809-.936.751-.975.691-1.042.613-1.07.545-1.129.467-1.169.39-1.2.312-1.236.224-1.265.136-1.3L68.5,50l-.049-1.325-.136-1.3-.224-1.265-.312-1.236-.389-1.2-.477-1.168-.546-1.121-.614-1.082-.682-1.032-.749-.982-.818-.925-.878-.878-.925-.818-.982-.749-1.032-.681-1.082-.614-1.121-.546-1.168-.477-1.2-.389-1.236-.312-1.265-.224ZM50,32.5l1.387.054,1.339.156,1.307.259,1.265.351,1.234.444,1.184.526,1.133.609,1.078.69,1.031.765.965.843.9.9.845.971.76,1.028.689,1.083.606,1.134.524,1.184.441,1.235L67.041,46l.256,1.309.153,1.339L67.5,50l-.054,1.387-.156,1.339-.259,1.307L66.68,55.3l-.443,1.223-.527,1.185-.618,1.141-.69,1.078-.763,1.029-.835.967-.907.905-.969.833-1.028.76-1.081.688-1.145.617-1.183.523-1.227.442L54,67.041l-1.309.256-1.339.153L50,67.5l-1.387-.054-1.339-.156-1.307-.259L44.7,66.681l-1.234-.444-1.184-.526L41.151,65.1l-1.078-.69-1.031-.765-.965-.843-.9-.9-.845-.971-.76-1.028-.689-1.083-.606-1.134L33.749,56.5l-.441-1.235L32.959,54,32.7,52.687l-.153-1.339L32.5,50l.054-1.387.156-1.339.259-1.307.351-1.265.444-1.234.526-1.184.609-1.133.69-1.078.765-1.031.843-.965.9-.9.971-.845,1.028-.76,1.083-.689,1.134-.606,1.184-.524,1.235-.441L46,32.959l1.309-.256,1.339-.153Zm1.292,1.049L50,33.5l-1.292.049-1.261.145-1.232.243-1.194.33-1.165.418-1.116.495-1.067.572-1.02.651-.97.718-.912.8-.856.856-.8.912-.718.97-.651,1.02-.572,1.067-.495,1.116-.418,1.165-.33,1.194-.243,1.232-.145,1.261L33.5,50l.049,1.292.145,1.261.243,1.232.33,1.194.418,1.165.495,1.116.572,1.067.651,1.02.718.97.8.912.856.856.912.8.97.718,1.02.651,1.067.572,1.116.495,1.165.418,1.194.33,1.232.243,1.261.145L50,66.5l1.292-.049,1.261-.145,1.232-.243,1.193-.33,1.155-.417,1.116-.495,1.077-.582,1.02-.651.971-.719.912-.786.854-.854.786-.912.719-.971.651-1.02.582-1.077.495-1.116.417-1.155.33-1.193.243-1.232.145-1.261L66.5,50l-.049-1.292-.145-1.261-.243-1.232-.33-1.194-.418-1.165-.495-1.116-.572-1.067-.651-1.02-.718-.97-.8-.912-.856-.856-.912-.8-.97-.718-1.02-.651-1.067-.572-1.116-.495-1.165-.418-1.194-.33-1.232-.243Z" fill="rgba(0,0,0,0)"/><path d="M85,56v4H83V56Z" fill="#a09ea5"/><path d="M85,56v4H83V56Z" fill="rgba(0,0,0,0)"/><path d="M82.5,55.5h3v5h-3Zm2,1h-1v3h1Z" fill="rgba(0,0,0,0)"/><path d="M85,56v4H83V56Z" fill="rgba(0,0,0,0)"/><path d="M85,56v4H83V56Z" fill="rgba(0,0,0,0)"/><path d="M82.5,55.5h3v5h-3Zm2,1h-1v3h1Z" fill="rgba(0,0,0,0)"/><path d="M85,44v8H83V44Z" fill="#a09ea5"/><path d="M85,44v8H83V44Z" fill="rgba(0,0,0,0)"/><path d="M82.5,43.5h3v9h-3Zm2,1h-1v7h1Z" fill="rgba(0,0,0,0)"/><path d="M85,44v8H83V44Z" fill="rgba(0,0,0,0)"/><path d="M85,44v8H83V44Z" fill="rgba(0,0,0,0)"/><path d="M82.5,43.5h3v9h-3Zm2,1h-1v7h1Z" fill="rgba(0,0,0,0)"/><path d="M17,48v8H15V48Z" fill="#a09ea5"/><path d="M17,48v8H15V48Z" fill="rgba(0,0,0,0)"/><path d="M14.5,47.5h3v9h-3Zm2,1h-1v7h1Z" fill="rgba(0,0,0,0)"/><path d="M17,48v8H15V48Z" fill="rgba(0,0,0,0)"/><path d="M17,48v8H15V48Z" fill="rgba(0,0,0,0)"/><path d="M14.5,47.5h3v9h-3Zm2,1h-1v7h1Z" fill="rgba(0,0,0,0)"/><path d="M17,40v4H15V40Z" fill="#a09ea5"/><path d="M17,40v4H15V40Z" fill="rgba(0,0,0,0)"/><path d="M14.5,39.5h3v5h-3Zm2,1h-1v3h1Z" fill="rgba(0,0,0,0)"/><path d="M17,40v4H15V40Z" fill="rgba(0,0,0,0)"/><path d="M17,40v4H15V40Z" fill="rgba(0,0,0,0)"/><path d="M14.5,39.5h3v5h-3Zm2,1h-1v3h1Z" fill="rgba(0,0,0,0)"/><path d="M41.97,26.33l.83-.27.84-.24.85-.21.84-.17.85-.15.85-.12.84-.09.85-.05.85-.03h.84l.85.02.84.06.83.08.84.12.82.14.82.16.82.2.8.22.8.25.79.27.78.3.77.33.76.35.75.38.74.4.72.43.71.46.69.47.68.51.67.52.64.55.63.58.62.6.59.62.58.64.55.67.53.69.52.71.49.73.54.88.5.89.45.91.42.91.38.92.34.94.31.94.26.95.22.95.19.96.14.96.11.96.07.97.04.96v.96l-.04.97-.08.95-.11.96-.15.94-.19.95-.22.93-.26.92-.29.92-.33.9-.36.89-.4.88-.43.86-.46.85-.5.83-.53.82-.57.79-.6.78-.63.75-.66.73-.7.71-.73.68-.76.66-.79.63-.83.61-.85.57H68v2H61.16L76,90.46,90.84,73H83V64h2v7H95.16L76,93.54,58.86,73.37l-.83.3-.83.27-.84.24-.85.21-.84.17-.85.15-.85.12-.84.09-.85.05-.85.03h-.84l-.85-.02-.84-.06-.83-.08-.84-.12-.82-.14-.82-.16-.82-.2-.8-.22-.8-.25-.79-.27-.78-.3-.77-.33-.76-.35-.75-.38-.74-.4-.72-.43-.71-.46-.69-.47-.68-.51-.67-.52-.64-.55-.63-.58-.62-.6-.59-.62-.58-.64-.55-.67-.53-.69-.52-.71-.49-.73-.54-.88-.5-.89-.45-.91-.42-.91-.38-.92-.34-.94-.31-.94-.26-.95-.22-.95-.19-.96-.14-.96-.11-.96-.07-.97-.04-.96v-.96l.04-.97.08-.95.11-.96.15-.94.19-.95.22-.93.26-.92.29-.92.33-.9.36-.89.4-.88.43-.86.46-.85.5-.83.53-.82.57-.79.6-.78.63-.75.66-.73.7-.71.73-.68.76-.66.79-.63.83-.61.85-.57H32V27h6.84L24,9.54,9.16,27H17v9H15V29H4.84L24,6.46,41.14,26.63Zm5.35.82-1.31.19-1.28.27-1.26.33-1.23.4-1.19.47-1.16.53-1.13.59-1.09.65-1.05.71-1.01.76-.96.82-.91.87-.87.91-.82.96-.76,1.01-.71,1.05-.65,1.09-.59,1.13-.53,1.16-.47,1.19-.4,1.23-.33,1.26-.27,1.28-.19,1.31-.11,1.33L27,50l.04,1.35.12,1.33.19,1.31.26,1.28.34,1.26.4,1.22.46,1.2.54,1.16.59,1.13.65,1.08.71,1.05.76,1.01.82.96.86.92.92.86.96.82,1.01.76,1.05.71,1.08.65,1.13.59,1.16.54,1.2.46,1.22.4,1.26.34,1.28.26,1.31.19,1.33.12L50,73l1.35-.04,1.33-.11,1.31-.19,1.28-.27,1.26-.33,1.23-.4,1.19-.47,1.16-.53,1.13-.59,1.09-.65,1.05-.71,1.01-.76.96-.82.91-.87.87-.91.82-.96.76-1.01.71-1.05.65-1.09.59-1.13.53-1.16.47-1.19.4-1.23.33-1.26.27-1.28.19-1.31.11-1.33L73,50l-.04-1.35-.11-1.33-.19-1.31-.27-1.28-.33-1.26-.4-1.23-.47-1.19-.53-1.16-.59-1.13-.65-1.09-.71-1.05-.76-1.01-.82-.96-.87-.91-.91-.87-.96-.82-1.01-.76-1.05-.71-1.09-.65-1.13-.59-1.16-.53-1.19-.47-1.23-.4-1.26-.33-1.28-.27-1.31-.19-1.33-.11L50,27l-1.35.04Z" fill="#a09ea5"/><path d="M41.97,26.33l.83-.27.84-.24.85-.21.84-.17.85-.15.85-.12.84-.09.85-.05.85-.03h.84l.85.02.84.06.83.08.84.12.82.14.82.16.82.2.8.22.8.25.79.27.78.3.77.33.76.35.75.38.74.4.72.43.71.46.69.47.68.51.67.52.64.55.63.58.62.6.59.62.58.64.55.67.53.69.52.71.49.73.54.88.5.89.45.91.42.91.38.92.34.94.31.94.26.95.22.95.19.96.14.96.11.96.07.97.04.96v.96l-.04.97-.08.95-.11.96-.15.94-.19.95-.22.93-.26.92-.29.92-.33.9-.36.89-.4.88-.43.86-.46.85-.5.83-.53.82-.57.79-.6.78-.63.75-.66.73-.7.71-.73.68-.76.66-.79.63-.83.61-.85.57H68v2H61.16L76,90.46,90.84,73H83V64h2v7H95.16L76,93.54,58.86,73.37l-.83.3-.83.27-.84.24-.85.21-.84.17-.85.15-.85.12-.84.09-.85.05-.85.03h-.84l-.85-.02-.84-.06-.83-.08-.84-.12-.82-.14-.82-.16-.82-.2-.8-.22-.8-.25-.79-.27-.78-.3-.77-.33-.76-.35-.75-.38-.74-.4-.72-.43-.71-.46-.69-.47-.68-.51-.67-.52-.64-.55-.63-.58-.62-.6-.59-.62-.58-.64-.55-.67-.53-.69-.52-.71-.49-.73-.54-.88-.5-.89-.45-.91-.42-.91-.38-.92-.34-.94-.31-.94-.26-.95-.22-.95-.19-.96-.14-.96-.11-.96-.07-.97-.04-.96v-.96l.04-.97.08-.95.11-.96.15-.94.19-.95.22-.93.26-.92.29-.92.33-.9.36-.89.4-.88.43-.86.46-.85.5-.83.53-.82.57-.79.6-.78.63-.75.66-.73.7-.71.73-.68.76-.66.79-.63.83-.61.85-.57H32V27h6.84L24,9.54,9.16,27H17v9H15V29H4.84L24,6.46,41.14,26.63Zm5.35.82-1.31.19-1.28.27-1.26.33-1.23.4-1.19.47-1.16.53-1.13.59-1.09.65-1.05.71-1.01.76-.96.82-.91.87-.87.91-.82.96-.76,1.01-.71,1.05-.65,1.09-.59,1.13-.53,1.16-.47,1.19-.4,1.23-.33,1.26-.27,1.28-.19,1.31-.11,1.33L27,50l.04,1.35.12,1.33.19,1.31.26,1.28.34,1.26.4,1.22.46,1.2.54,1.16.59,1.13.65,1.08.71,1.05.76,1.01.82.96.86.92.92.86.96.82,1.01.76,1.05.71,1.08.65,1.13.59,1.16.54,1.2.46,1.22.4,1.26.34,1.28.26,1.31.19,1.33.12L50,73l1.35-.04,1.33-.11,1.31-.19,1.28-.27,1.26-.33,1.23-.4,1.19-.47,1.16-.53,1.13-.59,1.09-.65,1.05-.71,1.01-.76.96-.82.91-.87.87-.91.82-.96.76-1.01.71-1.05.65-1.09.59-1.13.53-1.16.47-1.19.4-1.23.33-1.26.27-1.28.19-1.31.11-1.33L73,50l-.04-1.35-.11-1.33-.19-1.31-.27-1.28-.33-1.26-.4-1.23-.47-1.19-.53-1.16-.59-1.13-.65-1.09-.71-1.05-.76-1.01-.82-.96-.87-.91-.91-.87-.96-.82-1.01-.76-1.05-.71-1.09-.65-1.13-.59-1.16-.53-1.19-.47-1.23-.4-1.26-.33-1.28-.27-1.31-.19-1.33-.11L50,27l-1.35.04Z" fill="rgba(0,0,0,0)"/><path d="M24,5.688,41.3,26.042l.519-.187.847-.275.857-.245.871-.215.852-.172.867-.153.867-.122.864-.092.862-.051.868-.03h.852l.874.021.852.061.853.083.853.122.832.142.843.165.834.2.817.225.813.254.808.276.8.307.782.335.777.358.762.386.759.411.736.44.72.466.709.483.687.515.689.536.653.561.639.589.635.615.6.629.6.659.56.683.537.7.532.727.5.747.55.9.512.913.456.922.428.929.388.941.345.953.317.965.265.969.223.966.194.985.142.975.112.981.071.985.04.981v.981l-.041.991-.081.965-.113.982-.153.959-.194.967-.225.951-.264.934-.3.942-.336.915-.368.909-.408.9-.437.874-.471.87-.508.843-.544.841-.579.8-.613.8-.642.764-.675.746-.715.725-.743.692-.776.673-.806.642-.377.277H68.5v3H62.241L76,89.688,89.759,73.5H82.5v-10h3v7H96.241L76,94.312,58.7,73.958l-.519.187-.847.275-.857.245-.871.215-.852.172-.867.153-.867.122-.864.092-.862.051-.868.03h-.852l-.874-.021-.852-.061L47,75.335l-.853-.122-.832-.142-.843-.165-.834-.2-.817-.225-.813-.254-.808-.276-.8-.307-.782-.335-.777-.358-.762-.386-.759-.411-.736-.44-.72-.466-.709-.483-.687-.515-.689-.536-.653-.561-.639-.589-.634-.615-.6-.629-.6-.659-.56-.683-.537-.7-.532-.727-.5-.747-.55-.9-.512-.913-.456-.922-.428-.929L26.2,59.2l-.345-.953-.317-.965-.265-.969-.223-.966-.194-.985-.142-.975-.112-.981-.071-.985-.04-.981v-.981l.041-.991.081-.965.113-.982.153-.959.194-.967.225-.951.264-.934.3-.942.336-.915.368-.909.408-.9.437-.874.471-.87.508-.843.544-.841.579-.8.613-.8.642-.764.675-.746.715-.725.743-.692.776-.673.806-.642.377-.277H31.5v-3h6.259L24,10.312,10.241,26.5H17.5v10h-3v-7H3.759Zm16.984,21.53L24,7.232,5.921,28.5H15.5v7h1v-8H8.079L24,8.768,39.921,27.5H32.5v1h5.6L35.9,29.979l-.813.6-.774.617-.746.648-.716.667-.685.695-.647.715-.617.735-.589.766-.558.773-.519.8-.49.814-.451.833-.422.844-.392.862-.353.873L26.8,42.1l-.284.9-.255.9-.216.911-.186.932-.147.919-.108.942-.078.932-.039.949v.939l.039.942.069.952.108.942.137.94.186.94.216.932.254.928.3.921.334.923.372.9.413.894.441.893.489.87.53.863.479.713.511.7.522.679.537.654L32,66.64l.579.608.608.589.619.57.624.536.657.51.668.5.676.46.7.452.7.42.725.392.736.373.745.343.756.324.762.293.775.265.785.245.785.216.8.2.8.157.808.138.822.117.812.078.822.059.832.02h.825l.836-.029.832-.049.819-.088.834-.118.835-.147L55.4,73.9l.831-.205.823-.235.813-.265,1.149-.415L76,92.768,94.079,71.5H84.5v-7h-1v8h8.421L76,91.232,60.079,72.5H67.5v-1H61.9L64.1,70.021l.813-.6.774-.617.746-.648.716-.667.685-.695.647-.715.617-.735.589-.766.558-.773.519-.8.49-.814.451-.833.422-.844.392-.862.353-.873L73.2,57.9l.284-.9.255-.9.215-.911.186-.932.147-.919.108-.942.078-.932.039-.949V49.57l-.039-.942-.069-.952-.108-.942-.137-.94-.186-.94-.216-.933-.254-.928-.3-.921-.334-.923-.372-.9-.413-.894-.441-.893-.489-.87-.53-.863-.478-.713-.511-.7-.522-.679-.537-.654L68,33.36l-.579-.608-.608-.588-.619-.57-.624-.536-.657-.51-.668-.5-.676-.46-.7-.452-.7-.42-.725-.392-.736-.373-.745-.343-.756-.324-.762-.293-.775-.265-.785-.245-.785-.216-.8-.2-.8-.157-.808-.138-.822-.117-.812-.078-.822-.059L50.4,25.5h-.825l-.836.029-.832.049-.819.088-.834.118-.835.147L44.6,26.1l-.831.205-.823.235-.813.265ZM50,26.5l1.391.042,1.361.113,1.341.2,1.3.276,1.288.338,1.259.41,1.214.48,1.184.542,1.155.6,1.114.665,1.071.725,1.034.779.981.839.926.886.889.931.839.984.775,1.031.725,1.074.664,1.115.6,1.154.54,1.184.48,1.219.408,1.258.336,1.283.276,1.311.193,1.341.111,1.356L73.5,50l-.042,1.391-.113,1.361-.2,1.341-.276,1.3-.338,1.288-.41,1.259-.48,1.214L71.1,60.341,70.5,61.5l-.665,1.114-.725,1.071-.779,1.034-.839.981-.886.926-.931.889-.984.839-1.031.775-1.074.725-1.115.664-1.154.6-1.184.54-1.219.48-1.258.408-1.283.336-1.311.276-1.341.193-1.356.111L50,73.5l-1.395-.042-1.357-.123L45.91,73.14,44.6,72.873l-1.286-.348-1.243-.408-1.232-.474-1.18-.55-1.156-.6-1.1-.664L36.329,69.1,35.3,68.32l-.977-.835-.944-.884-.875-.937-.839-.984-.775-1.031-.724-1.072L29.5,61.471l-.6-1.15-.554-1.192-.468-1.223-.408-1.246L27.12,55.37l-.265-1.308-.193-1.337-.122-1.36L26.5,50l.042-1.391.113-1.361.2-1.341.276-1.3.338-1.288.41-1.259.48-1.214.542-1.184.6-1.155.665-1.114.725-1.071.779-1.034.839-.981.886-.926.931-.889.984-.839,1.031-.775,1.074-.725,1.115-.664,1.154-.6,1.184-.54,1.219-.48,1.258-.408,1.283-.336,1.311-.276,1.341-.193,1.356-.111Zm1.322,1.04L50,27.5l-1.322.039-1.3.108-1.279.186-1.253.264-1.234.323-1.2.391-1.164.46-1.136.519L39,30.367,37.938,31l-1.028.695-.988.743-.937.8-.892.853-.853.892-.8.938-.743.988L31,37.938,30.367,39l-.577,1.106-.519,1.136-.46,1.163-.391,1.2L28.1,44.845,27.833,46.1l-.186,1.279-.108,1.3L27.5,50l.039,1.32.117,1.3.186,1.283.254,1.251.332,1.232.392,1.2.449,1.172.528,1.134L30.376,61l.635,1.056.7,1.028.743.988.8.94.841.9.9.841.94.8.988.743,1.028.7L39,69.624l1.106.578,1.134.528,1.172.449,1.2.392,1.232.332,1.251.254,1.283.186,1.3.117L50,72.5l1.322-.039,1.3-.108,1.279-.186,1.253-.264,1.234-.323,1.2-.391,1.163-.459,1.136-.519L61,69.633,62.062,69l1.028-.695.988-.743.938-.8.892-.853.853-.892.8-.938.743-.987.7-1.028L69.633,61l.577-1.106.519-1.136.46-1.163.391-1.2.323-1.234.264-1.253.186-1.279.108-1.3L72.5,50l-.039-1.322-.108-1.3L72.167,46.1,71.9,44.845l-.323-1.234-.391-1.2-.459-1.163-.519-1.136L69.633,39,69,37.938,68.3,36.911l-.743-.988-.8-.937-.853-.892-.892-.853-.938-.8-.988-.743L62.062,31,61,30.367l-1.106-.577-1.136-.519-1.163-.46-1.2-.391L55.155,28.1,53.9,27.833l-1.279-.186Z" fill="rgba(0,0,0,0)"/><path d="M41.97,26.33l.83-.27.84-.24.85-.21.84-.17.85-.15.85-.12.84-.09.85-.05.85-.03h.84l.85.02.84.06.83.08.84.12.82.14.82.16.82.2.8.22.8.25.79.27.78.3.77.33.76.35.75.38.74.4.72.43.71.46.69.47.68.51.67.52.64.55.63.58.62.6.59.62.58.64.55.67.53.69.52.71.49.73.54.88.5.89.45.91.42.91.38.92.34.94.31.94.26.95.22.95.19.96.14.96.11.96.07.97.04.96v.96l-.04.97-.08.95-.11.96-.15.94-.19.95-.22.93-.26.92-.29.92-.33.9-.36.89-.4.88-.43.86-.46.85-.5.83-.53.82-.57.79-.6.78-.63.75-.66.73-.7.71-.73.68-.76.66-.79.63-.83.61-.85.57H68v2H61.16L76,90.46,90.84,73H83V64h2v7H95.16L76,93.54,58.86,73.37l-.83.3-.83.27-.84.24-.85.21-.84.17-.85.15-.85.12-.84.09-.85.05-.85.03h-.84l-.85-.02-.84-.06-.83-.08-.84-.12-.82-.14-.82-.16-.82-.2-.8-.22-.8-.25-.79-.27-.78-.3-.77-.33-.76-.35-.75-.38-.74-.4-.72-.43-.71-.46-.69-.47-.68-.51-.67-.52-.64-.55-.63-.58-.62-.6-.59-.62-.58-.64-.55-.67-.53-.69-.52-.71-.49-.73-.54-.88-.5-.89-.45-.91-.42-.91-.38-.92-.34-.94-.31-.94-.26-.95-.22-.95-.19-.96-.14-.96-.11-.96-.07-.97-.04-.96v-.96l.04-.97.08-.95.11-.96.15-.94.19-.95.22-.93.26-.92.29-.92.33-.9.36-.89.4-.88.43-.86.46-.85.5-.83.53-.82.57-.79.6-.78.63-.75.66-.73.7-.71.73-.68.76-.66.79-.63.83-.61.85-.57H32V27h6.84L24,9.54,9.16,27H17v9H15V29H4.84L24,6.46,41.14,26.63Zm5.35.82-1.31.19-1.28.27-1.26.33-1.23.4-1.19.47-1.16.53-1.13.59-1.09.65-1.05.71-1.01.76-.96.82-.91.87-.87.91-.82.96-.76,1.01-.71,1.05-.65,1.09-.59,1.13-.53,1.16-.47,1.19-.4,1.23-.33,1.26-.27,1.28-.19,1.31-.11,1.33L27,50l.04,1.35.12,1.33.19,1.31.26,1.28.34,1.26.4,1.22.46,1.2.54,1.16.59,1.13.65,1.08.71,1.05.76,1.01.82.96.86.92.92.86.96.82,1.01.76,1.05.71,1.08.65,1.13.59,1.16.54,1.2.46,1.22.4,1.26.34,1.28.26,1.31.19,1.33.12L50,73l1.35-.04,1.33-.11,1.31-.19,1.28-.27,1.26-.33,1.23-.4,1.19-.47,1.16-.53,1.13-.59,1.09-.65,1.05-.71,1.01-.76.96-.82.91-.87.87-.91.82-.96.76-1.01.71-1.05.65-1.09.59-1.13.53-1.16.47-1.19.4-1.23.33-1.26.27-1.28.19-1.31.11-1.33L73,50l-.04-1.35-.11-1.33-.19-1.31-.27-1.28-.33-1.26-.4-1.23-.47-1.19-.53-1.16-.59-1.13-.65-1.09-.71-1.05-.76-1.01-.82-.96-.87-.91-.91-.87-.96-.82-1.01-.76-1.05-.71-1.09-.65-1.13-.59-1.16-.53-1.19-.47-1.23-.4-1.26-.33-1.28-.27-1.31-.19-1.33-.11L50,27l-1.35.04Z" fill="rgba(0,0,0,0)"/><path d="M41.97,26.33l.83-.27.84-.24.85-.21.84-.17.85-.15.85-.12.84-.09.85-.05.85-.03h.84l.85.02.84.06.83.08.84.12.82.14.82.16.82.2.8.22.8.25.79.27.78.3.77.33.76.35.75.38.74.4.72.43.71.46.69.47.68.51.67.52.64.55.63.58.62.6.59.62.58.64.55.67.53.69.52.71.49.73.54.88.5.89.45.91.42.91.38.92.34.94.31.94.26.95.22.95.19.96.14.96.11.96.07.97.04.96v.96l-.04.97-.08.95-.11.96-.15.94-.19.95-.22.93-.26.92-.29.92-.33.9-.36.89-.4.88-.43.86-.46.85-.5.83-.53.82-.57.79-.6.78-.63.75-.66.73-.7.71-.73.68-.76.66-.79.63-.83.61-.85.57H68v2H61.16L76,90.46,90.84,73H83V64h2v7H95.16L76,93.54,58.86,73.37l-.83.3-.83.27-.84.24-.85.21-.84.17-.85.15-.85.12-.84.09-.85.05-.85.03h-.84l-.85-.02-.84-.06-.83-.08-.84-.12-.82-.14-.82-.16-.82-.2-.8-.22-.8-.25-.79-.27-.78-.3-.77-.33-.76-.35-.75-.38-.74-.4-.72-.43-.71-.46-.69-.47-.68-.51-.67-.52-.64-.55-.63-.58-.62-.6-.59-.62-.58-.64-.55-.67-.53-.69-.52-.71-.49-.73-.54-.88-.5-.89-.45-.91-.42-.91-.38-.92-.34-.94-.31-.94-.26-.95-.22-.95-.19-.96-.14-.96-.11-.96-.07-.97-.04-.96v-.96l.04-.97.08-.95.11-.96.15-.94.19-.95.22-.93.26-.92.29-.92.33-.9.36-.89.4-.88.43-.86.46-.85.5-.83.53-.82.57-.79.6-.78.63-.75.66-.73.7-.71.73-.68.76-.66.79-.63.83-.61.85-.57H32V27h6.84L24,9.54,9.16,27H17v9H15V29H4.84L24,6.46,41.14,26.63Zm5.35.82-1.31.19-1.28.27-1.26.33-1.23.4-1.19.47-1.16.53-1.13.59-1.09.65-1.05.71-1.01.76-.96.82-.91.87-.87.91-.82.96-.76,1.01-.71,1.05-.65,1.09-.59,1.13-.53,1.16-.47,1.19-.4,1.23-.33,1.26-.27,1.28-.19,1.31-.11,1.33L27,50l.04,1.35.12,1.33.19,1.31.26,1.28.34,1.26.4,1.22.46,1.2.54,1.16.59,1.13.65,1.08.71,1.05.76,1.01.82.96.86.92.92.86.96.82,1.01.76,1.05.71,1.08.65,1.13.59,1.16.54,1.2.46,1.22.4,1.26.34,1.28.26,1.31.19,1.33.12L50,73l1.35-.04,1.33-.11,1.31-.19,1.28-.27,1.26-.33,1.23-.4,1.19-.47,1.16-.53,1.13-.59,1.09-.65,1.05-.71,1.01-.76.96-.82.91-.87.87-.91.82-.96.76-1.01.71-1.05.65-1.09.59-1.13.53-1.16.47-1.19.4-1.23.33-1.26.27-1.28.19-1.31.11-1.33L73,50l-.04-1.35-.11-1.33-.19-1.31-.27-1.28-.33-1.26-.4-1.23-.47-1.19-.53-1.16-.59-1.13-.65-1.09-.71-1.05-.76-1.01-.82-.96-.87-.91-.91-.87-.96-.82-1.01-.76-1.05-.71-1.09-.65-1.13-.59-1.16-.53-1.19-.47-1.23-.4-1.26-.33-1.28-.27-1.31-.19-1.33-.11L50,27l-1.35.04Z" fill="rgba(0,0,0,0)"/><path d="M24,5.688,41.3,26.042l.519-.187.847-.275.857-.245.871-.215.852-.172.867-.153.867-.122.864-.092.862-.051.868-.03h.852l.874.021.852.061.853.083.853.122.832.142.843.165.834.2.817.225.813.254.808.276.8.307.782.335.777.358.762.386.759.411.736.44.72.466.709.483.687.515.689.536.653.561.639.589.635.615.6.629.6.659.56.683.537.7.532.727.5.747.55.9.512.913.456.922.428.929.388.941.345.953.317.965.265.969.223.966.194.985.142.975.112.981.071.985.04.981v.981l-.041.991-.081.965-.113.982-.153.959-.194.967-.225.951-.264.934-.3.942-.336.915-.368.909-.408.9-.437.874-.471.87-.508.843-.544.841-.579.8-.613.8-.642.764-.675.746-.715.725-.743.692-.776.673-.806.642-.377.277H68.5v3H62.241L76,89.688,89.759,73.5H82.5v-10h3v7H96.241L76,94.312,58.7,73.958l-.519.187-.847.275-.857.245-.871.215-.852.172-.867.153-.867.122-.864.092-.862.051-.868.03h-.852l-.874-.021-.852-.061L47,75.335l-.853-.122-.832-.142-.843-.165-.834-.2-.817-.225-.813-.254-.808-.276-.8-.307-.782-.335-.777-.358-.762-.386-.759-.411-.736-.44-.72-.466-.709-.483-.687-.515-.689-.536-.653-.561-.639-.589-.634-.615-.6-.629-.6-.659-.56-.683-.537-.7-.532-.727-.5-.747-.55-.9-.512-.913-.456-.922-.428-.929L26.2,59.2l-.345-.953-.317-.965-.265-.969-.223-.966-.194-.985-.142-.975-.112-.981-.071-.985-.04-.981v-.981l.041-.991.081-.965.113-.982.153-.959.194-.967.225-.951.264-.934.3-.942.336-.915.368-.909.408-.9.437-.874.471-.87.508-.843.544-.841.579-.8.613-.8.642-.764.675-.746.715-.725.743-.692.776-.673.806-.642.377-.277H31.5v-3h6.259L24,10.312,10.241,26.5H17.5v10h-3v-7H3.759Zm16.984,21.53L24,7.232,5.921,28.5H15.5v7h1v-8H8.079L24,8.768,39.921,27.5H32.5v1h5.6L35.9,29.979l-.813.6-.774.617-.746.648-.716.667-.685.695-.647.715-.617.735-.589.766-.558.773-.519.8-.49.814-.451.833-.422.844-.392.862-.353.873L26.8,42.1l-.284.9-.255.9-.216.911-.186.932-.147.919-.108.942-.078.932-.039.949v.939l.039.942.069.952.108.942.137.94.186.94.216.932.254.928.3.921.334.923.372.9.413.894.441.893.489.87.53.863.479.713.511.7.522.679.537.654L32,66.64l.579.608.608.589.619.57.624.536.657.51.668.5.676.46.7.452.7.42.725.392.736.373.745.343.756.324.762.293.775.265.785.245.785.216.8.2.8.157.808.138.822.117.812.078.822.059.832.02h.825l.836-.029.832-.049.819-.088.834-.118.835-.147L55.4,73.9l.831-.205.823-.235.813-.265,1.149-.415L76,92.768,94.079,71.5H84.5v-7h-1v8h8.421L76,91.232,60.079,72.5H67.5v-1H61.9L64.1,70.021l.813-.6.774-.617.746-.648.716-.667.685-.695.647-.715.617-.735.589-.766.558-.773.519-.8.49-.814.451-.833.422-.844.392-.862.353-.873L73.2,57.9l.284-.9.255-.9.215-.911.186-.932.147-.919.108-.942.078-.932.039-.949V49.57l-.039-.942-.069-.952-.108-.942-.137-.94-.186-.94-.216-.933-.254-.928-.3-.921-.334-.923-.372-.9-.413-.894-.441-.893-.489-.87-.53-.863-.478-.713-.511-.7-.522-.679-.537-.654L68,33.36l-.579-.608-.608-.588-.619-.57-.624-.536-.657-.51-.668-.5-.676-.46-.7-.452-.7-.42-.725-.392-.736-.373-.745-.343-.756-.324-.762-.293-.775-.265-.785-.245-.785-.216-.8-.2-.8-.157-.808-.138-.822-.117-.812-.078-.822-.059L50.4,25.5h-.825l-.836.029-.832.049-.819.088-.834.118-.835.147L44.6,26.1l-.831.205-.823.235-.813.265ZM50,26.5l1.391.042,1.361.113,1.341.2,1.3.276,1.288.338,1.259.41,1.214.48,1.184.542,1.155.6,1.114.665,1.071.725,1.034.779.981.839.926.886.889.931.839.984.775,1.031.725,1.074.664,1.115.6,1.154.54,1.184.48,1.219.408,1.258.336,1.283.276,1.311.193,1.341.111,1.356L73.5,50l-.042,1.391-.113,1.361-.2,1.341-.276,1.3-.338,1.288-.41,1.259-.48,1.214L71.1,60.341,70.5,61.5l-.665,1.114-.725,1.071-.779,1.034-.839.981-.886.926-.931.889-.984.839-1.031.775-1.074.725-1.115.664-1.154.6-1.184.54-1.219.48-1.258.408-1.283.336-1.311.276-1.341.193-1.356.111L50,73.5l-1.395-.042-1.357-.123L45.91,73.14,44.6,72.873l-1.286-.348-1.243-.408-1.232-.474-1.18-.55-1.156-.6-1.1-.664L36.329,69.1,35.3,68.32l-.977-.835-.944-.884-.875-.937-.839-.984-.775-1.031-.724-1.072L29.5,61.471l-.6-1.15-.554-1.192-.468-1.223-.408-1.246L27.12,55.37l-.265-1.308-.193-1.337-.122-1.36L26.5,50l.042-1.391.113-1.361.2-1.341.276-1.3.338-1.288.41-1.259.48-1.214.542-1.184.6-1.155.665-1.114.725-1.071.779-1.034.839-.981.886-.926.931-.889.984-.839,1.031-.775,1.074-.725,1.115-.664,1.154-.6,1.184-.54,1.219-.48,1.258-.408,1.283-.336,1.311-.276,1.341-.193,1.356-.111Zm1.322,1.04L50,27.5l-1.322.039-1.3.108-1.279.186-1.253.264-1.234.323-1.2.391-1.164.46-1.136.519L39,30.367,37.938,31l-1.028.695-.988.743-.937.8-.892.853-.853.892-.8.938-.743.988L31,37.938,30.367,39l-.577,1.106-.519,1.136-.46,1.163-.391,1.2L28.1,44.845,27.833,46.1l-.186,1.279-.108,1.3L27.5,50l.039,1.32.117,1.3.186,1.283.254,1.251.332,1.232.392,1.2.449,1.172.528,1.134L30.376,61l.635,1.056.7,1.028.743.988.8.94.841.9.9.841.94.8.988.743,1.028.7L39,69.624l1.106.578,1.134.528,1.172.449,1.2.392,1.232.332,1.251.254,1.283.186,1.3.117L50,72.5l1.322-.039,1.3-.108,1.279-.186,1.253-.264,1.234-.323,1.2-.391,1.163-.459,1.136-.519L61,69.633,62.062,69l1.028-.695.988-.743.938-.8.892-.853.853-.892.8-.938.743-.987.7-1.028L69.633,61l.577-1.106.519-1.136.46-1.163.391-1.2.323-1.234.264-1.253.186-1.279.108-1.3L72.5,50l-.039-1.322-.108-1.3L72.167,46.1,71.9,44.845l-.323-1.234-.391-1.2-.459-1.163-.519-1.136L69.633,39,69,37.938,68.3,36.911l-.743-.988-.8-.937-.853-.892-.892-.853-.938-.8-.988-.743L62.062,31,61,30.367l-1.106-.577-1.136-.519-1.163-.46-1.2-.391L55.155,28.1,53.9,27.833l-1.279-.186Z" fill="rgba(0,0,0,0)"/><path d="M100,0V100H0V0Z" fill="rgba(0,0,0,0)"/><path d="M100,0V100H0V0Z" fill="rgba(0,0,0,0)"/><path d="M-.5-.5h101v101H-.5Zm100,1H.5v99h99Z" fill="rgba(0,0,0,0)"/><path d="M100,0V100H0V0Z" fill="rgba(0,0,0,0)"/><path d="M100,0V100H0V0Z" fill="rgba(0,0,0,0)"/><path d="M-.5-.5h101v101H-.5Zm100,1H.5v99h99Z" fill="rgba(0,0,0,0)"/><g transform="translate(38 38)"><path d="M12,0A12,12,0,1,1,0,12,12,12,0,0,1,12,0Z" fill="#a09ea5" fill-rule="evenodd"/><path d="M280.146,271a9.581,9.581,0,0,1,8.036,4.373,4.581,4.581,0,0,1,.567,1.368,5.519,5.519,0,0,1,.117,1.332,6.51,6.51,0,0,1-6.515,6.353h-.792l-.108.324h0v.009h0l-.936,2.8c-.3.054-.6.09-.918.117l-.63.027h-.711l1.809-5.462h2.664a5.789,5.789,0,0,0,5.579-4.6.889.889,0,0,0,.036-.342.6.6,0,0,0-.6-.522h-4.607a1.378,1.378,0,0,1-1.062-.531c-.009-.009-.018-.027-.027-.036a12.209,12.209,0,0,0-1.314-1.413c-.045-.045-.09-.081-.144-.126a2.931,2.931,0,0,0-1.773-.675h-.261c-.216.009-.432.018-.648.045a6.543,6.543,0,0,0-5.822,6.506,5.953,5.953,0,0,0,.036.693,2,2,0,0,0,1.08,1.683,1.462,1.462,0,0,0,1.017.045l.09-.027a5.781,5.781,0,0,0,3.24-3.213h0a7.542,7.542,0,0,1-.27.837c-.99,2.529-3.186,4.022-4.9,3.321a3.3,3.3,0,0,1-1.782-3.033,4.876,4.876,0,0,1-.009-.513,9.566,9.566,0,0,1,9.558-9.34Zm9.125,6.686a9.573,9.573,0,0,1-8.738,12.436l1.611-4.85h.153a7,7,0,0,0,7-7c0-.2-.009-.4-.027-.585Z" transform="translate(-268.151 -268.561)" fill="#fff" fill-rule="evenodd"/></g></g></svg>