<?xml version="1.0" encoding="UTF-8"?>
<!DOCTYPE svg PUBLIC "-//W3C//DTD SVG 1.1//EN" "http://www.w3.org/Graphics/SVG/1.1/DTD/svg11.dtd">
<!-- Creator: CorelDRAW X7.4 EN Portable -->
<svg xmlns="http://www.w3.org/2000/svg" xml:space="preserve" width="2.66666in" height="2.66665in" version="1.1" style="shape-rendering:geometricPrecision; text-rendering:geometricPrecision; image-rendering:optimizeQuality; fill-rule:evenodd; clip-rule:evenodd"
viewBox="0 0 2667 2667"
 xmlns:xlink="http://www.w3.org/1999/xlink">
 <defs>
  <style type="text/css">
   <![CDATA[
    .fil0 {fill:#216BEB}
    .fil1 {fill:white}
   ]]>
  </style>
 </defs>
 <g id="Layer_x0020_1">
  <metadata id="CorelCorpID_0Corel-Layer"/>
  <g id="_577225672">
   <path class="fil0" d="M1333 0c737,0 1334,597 1334,1333 0,737 -597,1334 -1334,1334 -736,0 -1333,-597 -1333,-1334 0,-736 597,-1333 1333,-1333z"/>
   <path class="fil1" d="M1333 271c374,0 703,194 893,486 29,45 50,99 63,152 11,47 14,100 13,148 -9,392 -330,706 -724,706 -1,0 -2,0 -3,0l0 0 -85 0 -12 36 0 0 0 1 0 0 -104 311c-33,6 -67,10 -102,13 -23,1 -46,2 -70,3l-79 0 201 -607c93,0 186,0 279,0 6,0 11,0 17,0 305,-5 561,-222 620,-511 3,-13 6,-25 4,-38 -4,-33 -33,-59 -67,-58l-1 0 -30 0 -357 0 -124 0 0 0c-48,-1 -91,-24 -118,-59 -1,-1 -2,-3 -3,-4 -45,-56 -93,-109 -146,-157 -5,-5 -10,-9 -16,-14 -54,-45 -122,-72 -197,-75 -10,0 -19,0 -29,0 -24,1 -48,2 -72,5 -364,40 -647,348 -647,723 0,25 1,52 4,77 12,89 54,160 120,187 36,16 74,16 113,5 3,-1 7,-2 10,-3 143,-46 275,-174 360,-357l0 0c-8,31 -18,62 -30,93 -110,281 -354,447 -544,369 -118,-48 -188,-178 -198,-337 -1,-19 -2,-38 -1,-57 13,-575 484,-1038 1062,-1038zm1014 743c32,101 49,208 49,320 0,572 -453,1039 -1020,1062l179 -539 0 0c6,0 11,0 17,0 429,0 778,-348 778,-778 0,-22 -1,-44 -3,-65l0 0z"/>
  </g>
 </g>
</svg>
