<?xml version="1.0" encoding="UTF-8"?>
<!DOCTYPE svg PUBLIC "-//W3C//DTD SVG 1.1//EN" "http://www.w3.org/Graphics/SVG/1.1/DTD/svg11.dtd">
<!-- Creator: CorelDRAW X7.4 EN Portable -->
<svg xmlns="http://www.w3.org/2000/svg" xml:space="preserve" width="6.33333in" height="1.12002in" version="1.1" style="shape-rendering:geometricPrecision; text-rendering:geometricPrecision; image-rendering:optimizeQuality; fill-rule:evenodd; clip-rule:evenodd"
viewBox="0 0 6333 1120"
 xmlns:xlink="http://www.w3.org/1999/xlink">
 <defs>
  <style type="text/css">
   <![CDATA[
    .fil1 {fill:#216BEB}
    .fil0 {fill:#041636;fill-rule:nonzero}
   ]]>
  </style>
 </defs>
 <g id="Layer_x0020_1">
  <metadata id="CorelCorpID_0Corel-Layer"/>
  <g id="_544187648">
   <path class="fil0" d="M1659 847c-49,0 -92,-12 -131,-37 -38,-25 -68,-59 -90,-102 -22,-43 -33,-92 -33,-147 0,-56 11,-105 33,-149 22,-43 52,-77 90,-102 39,-24 82,-37 131,-37 33,0 65,7 96,20 30,13 54,31 73,51l0 -281 143 0 0 774 -136 0 -2 -66c-18,21 -42,40 -74,54 -31,15 -65,22 -100,22zm31 -119c43,0 77,-16 104,-47 26,-31 39,-71 39,-120 0,-50 -13,-91 -39,-122 -27,-31 -61,-46 -104,-46 -42,0 -77,15 -103,46 -27,31 -40,72 -40,122 0,49 13,89 40,120 26,31 61,47 103,47zm682 119c-57,0 -107,-12 -151,-37 -44,-25 -78,-59 -103,-102 -25,-43 -38,-93 -38,-148 0,-55 13,-104 38,-148 25,-43 59,-77 103,-102 44,-24 94,-37 151,-37 55,0 104,13 148,37 44,25 78,59 103,102 26,44 38,93 38,148 0,55 -12,105 -38,148 -25,43 -59,77 -103,102 -44,25 -93,37 -148,37zm0 -124c27,0 53,-7 75,-22 22,-14 39,-33 52,-58 12,-24 18,-52 18,-83 0,-32 -6,-59 -18,-84 -13,-24 -30,-43 -52,-57 -22,-14 -48,-21 -75,-21 -29,0 -54,7 -77,21 -22,14 -39,33 -52,57 -12,25 -19,52 -19,84 0,31 7,59 19,83 13,25 30,44 52,58 23,15 48,22 77,22zm653 354c-43,0 -85,-6 -127,-19 -42,-13 -77,-30 -103,-50l50 -103c22,16 47,28 77,37 29,9 60,14 90,14 108,0 162,-51 162,-153l0 -43c-17,23 -41,41 -72,56 -31,15 -64,23 -98,23 -51,0 -96,-12 -137,-36 -40,-24 -71,-57 -94,-100 -23,-42 -35,-90 -35,-144 0,-55 12,-104 34,-148 23,-43 54,-77 94,-101 40,-24 84,-37 134,-37 37,0 71,8 103,23 31,15 57,33 75,54l2 -65 137 0 0 511c0,90 -26,159 -78,208 -51,49 -123,73 -214,73zm4 -355c45,0 82,-15 109,-45 28,-30 41,-69 41,-117 0,-49 -14,-89 -41,-119 -28,-30 -64,-45 -109,-45 -44,0 -80,15 -107,46 -28,30 -41,70 -41,118 0,48 13,87 41,117 27,30 63,45 107,45zm697 125c-59,0 -111,-12 -156,-36 -44,-25 -79,-58 -104,-101 -24,-42 -37,-91 -37,-146 0,-57 12,-108 36,-151 24,-44 57,-78 100,-103 42,-25 90,-38 145,-38 50,0 94,12 134,36 39,24 70,57 91,98 22,41 33,88 31,141l-1 45 -397 0c8,40 27,71 57,94 30,23 69,35 116,35 25,0 47,-4 68,-12 21,-7 43,-21 66,-41l69 97c-30,26 -64,46 -103,61 -38,14 -77,21 -115,21zm-15 -451c-78,0 -126,35 -142,106l261 0 0 -4c-2,-30 -14,-54 -37,-74 -22,-19 -50,-28 -82,-28zm605 451c-52,0 -99,-12 -140,-38 -42,-25 -74,-59 -98,-102 -24,-43 -36,-92 -36,-147 0,-55 12,-103 36,-147 24,-43 56,-77 98,-102 41,-25 88,-38 140,-38 50,0 95,9 136,28 41,18 72,43 95,76l-78 94c-15,-20 -35,-38 -61,-52 -25,-14 -52,-21 -78,-21 -29,0 -55,7 -78,21 -22,14 -40,34 -53,58 -13,25 -19,52 -19,83 0,30 6,58 19,82 14,25 32,44 55,58 23,15 48,22 77,22 27,0 52,-6 75,-19 23,-12 44,-29 63,-51l78 94c-23,30 -56,55 -98,73 -42,19 -86,28 -133,28zm534 0c-46,0 -87,-12 -124,-38 -37,-25 -66,-59 -88,-102 -22,-43 -33,-92 -33,-147 0,-57 11,-106 33,-149 22,-43 52,-77 90,-101 38,-24 81,-37 129,-37 39,0 73,8 102,24 29,16 53,36 70,61l0 -73 142 0 0 552 -143 0 0 -75c-19,25 -45,45 -76,61 -31,16 -65,24 -102,24zm39 -124c43,0 77,-15 104,-45 26,-30 39,-70 39,-118 0,-49 -13,-88 -39,-118 -27,-30 -61,-45 -104,-45 -42,0 -76,15 -102,45 -26,30 -39,69 -39,118 0,48 13,88 39,118 26,30 60,45 102,45zm617 124c-51,0 -96,-8 -136,-25 -40,-17 -72,-40 -96,-71l90 -76c20,23 44,39 71,49 26,10 53,15 80,15 22,0 39,-4 52,-14 14,-10 20,-23 20,-41 0,-15 -6,-27 -19,-36 -12,-9 -42,-19 -90,-32 -70,-18 -120,-43 -149,-74 -26,-28 -39,-62 -39,-103 0,-33 10,-62 30,-87 19,-24 45,-44 77,-58 32,-14 67,-21 104,-21 44,0 84,8 123,23 38,16 70,37 96,63l-77 85c-20,-18 -42,-34 -68,-46 -25,-12 -49,-18 -70,-18 -51,0 -76,17 -76,52 1,17 9,30 23,40 14,10 46,21 95,34 67,18 113,41 141,69 23,25 35,57 35,98 0,33 -10,63 -29,89 -19,27 -45,48 -78,63 -32,15 -69,22 -110,22zm324 -10l0 -774 141 0 0 294c19,-24 43,-44 74,-60 31,-16 64,-24 98,-24 127,0 190,76 190,226l0 338 -142 0 0 -327c0,-79 -33,-117 -99,-114 -34,0 -63,10 -85,31 -23,21 -34,47 -34,77l0 333 -143 0z"/>
   <path class="fil1" d="M560 0c197,0 371,102 471,256 15,24 26,52 33,80 6,25 8,53 7,79 -5,206 -174,372 -382,372 0,0 -1,0 -2,0l0 0 -44 0 -6 18 0 0 0 1 0 0 -55 164c-18,3 -36,5 -54,7 -12,1 -25,1 -37,1l-42 0 106 -320c49,0 99,0 148,0 2,0 5,0 8,0 161,-2 296,-117 327,-269 2,-7 3,-13 2,-20 -2,-17 -17,-31 -35,-31l0 0 -16 0 -188 0 -66 0 0 0c-25,0 -48,-12 -62,-31 -1,0 -1,-1 -2,-2 -23,-29 -49,-57 -77,-83 -3,-2 -5,-5 -8,-7 -28,-23 -65,-38 -104,-39 -5,0 -10,0 -15,0 -13,0 -26,1 -38,2 -192,21 -341,184 -341,381 0,14 0,28 2,41 6,47 28,84 63,99 19,8 39,8 60,2 1,0 3,-1 5,-1 75,-25 145,-92 190,-189l0 0c-4,17 -10,33 -16,49 -58,149 -187,236 -287,195 -62,-26 -99,-94 -104,-178 -1,-10 -1,-20 -1,-30 7,-303 255,-547 560,-547zm535 392c16,53 25,109 25,168 0,302 -238,548 -537,560l94 -284 0 0c3,0 6,0 9,0 226,0 410,-184 410,-410 0,-12 0,-23 -1,-34l0 0z"/>
  </g>
 </g>
</svg>
